<?xml version="1.0" encoding="UTF-8"?>
<svg version="1.1" xmlns="http://www.w3.org/2000/svg" width="737" height="338">
<path d="M0 0 C0.68707031 0.39058594 1.37414062 0.78117187 2.08203125 1.18359375 C2.73816406 1.52261719 3.39429688 1.86164063 4.0703125 2.2109375 C9.4968293 5.47614354 12.28723838 10.64592366 15.08203125 16.18359375 C15.60349731 17.18507446 15.60349731 17.18507446 16.13549805 18.20678711 C17.51977061 22.56026541 17.44731133 26.76835853 17.48828125 31.3125 C17.4996814 32.29798325 17.51108154 33.28346649 17.52282715 34.29881287 C17.54169322 36.38414238 17.55478165 38.46953107 17.5625 40.55493164 C17.58181977 43.71154084 17.64384721 46.86549118 17.70703125 50.02148438 C17.83521347 62.18456646 17.68876763 71.95662332 9.07177734 81.38256836 C0.44332623 89.71617452 -8.68963902 91.36197164 -20.29296875 91.37109375 C-21.51113281 91.38946289 -21.51113281 91.38946289 -22.75390625 91.40820312 C-31.47444106 91.42916595 -38.24763675 89.29270018 -45.91796875 85.18359375 C-45.91796875 84.52359375 -45.91796875 83.86359375 -45.91796875 83.18359375 C-46.50320312 82.94769531 -47.0884375 82.71179688 -47.69140625 82.46875 C-50.4271758 80.88968302 -51.71671383 79.19152743 -53.54296875 76.62109375 C-54.13335937 75.81542969 -54.72375 75.00976562 -55.33203125 74.1796875 C-59.87264559 65.60172887 -59.22829653 56.05849806 -59.17871094 46.61816406 C-59.16799348 44.18919916 -59.17864817 41.76097365 -59.19140625 39.33203125 C-59.20346356 27.12706243 -58.84670097 16.59642953 -50.12890625 7.26953125 C-37.63442006 -4.42849367 -15.53397256 -7.25253323 0 0 Z " fill="#D8DDF9" transform="translate(208.91796875,76.81640625)"/>
<path d="M0 0 C9.06708473 7.37288896 15.4406402 18.54557774 18.2578125 29.8359375 C18.43957031 30.54878906 18.62132812 31.26164062 18.80859375 31.99609375 C21.44784287 48.68073818 18.74915793 63.80956279 9.2578125 77.8359375 C8.85691406 78.48304688 8.45601562 79.13015625 8.04296875 79.796875 C1.62140239 89.69949248 -8.72943936 93.78451149 -19.82421875 96.625 C-35.87497822 99.7804573 -50.66929657 95.54608519 -64.7421875 87.8359375 C-64.7421875 87.1759375 -64.7421875 86.5159375 -64.7421875 85.8359375 C-66.2271875 85.3409375 -66.2271875 85.3409375 -67.7421875 84.8359375 C-67.7421875 84.1759375 -67.7421875 83.5159375 -67.7421875 82.8359375 C-68.4021875 82.8359375 -69.0621875 82.8359375 -69.7421875 82.8359375 C-69.7421875 82.1759375 -69.7421875 81.5159375 -69.7421875 80.8359375 C-70.4021875 80.8359375 -71.0621875 80.8359375 -71.7421875 80.8359375 C-78.3958973 72.01635735 -83.4738601 60.95235852 -83.7421875 49.8359375 C-83.78085937 48.98515625 -83.81953125 48.134375 -83.859375 47.2578125 C-84.26641433 31.42850508 -80.29553505 17.85122064 -69.7421875 5.8359375 C-69.0821875 5.8359375 -68.4221875 5.8359375 -67.7421875 5.8359375 C-67.49210938 5.2378125 -67.24203125 4.6396875 -66.984375 4.0234375 C-63.19477764 -2.65006729 -54.52756093 -5.21609262 -47.63671875 -7.40234375 C-31.59846235 -11.62293754 -13.68805939 -9.68379127 0 0 Z M-53.7421875 22.8359375 C-59.44655476 32.83597158 -60.26330069 44.51455357 -58.2109375 55.7421875 C-56.78461939 60.26919716 -54.69281266 64.12386068 -51.7421875 67.8359375 C-51.0821875 67.8359375 -50.4221875 67.8359375 -49.7421875 67.8359375 C-49.7421875 68.4959375 -49.7421875 69.1559375 -49.7421875 69.8359375 C-44.21711279 74.91773974 -38.03336424 75.99864158 -30.7421875 75.8359375 C-22.46749607 75.24925332 -16.70024802 72.31771086 -11.20703125 66.09765625 C-5.40781188 58.47244361 -4.05893234 49.26135488 -4.7421875 39.8359375 C-5.93959047 31.19644774 -8.85031596 23.47474148 -15.7421875 17.8359375 C-28.39724398 10.35909774 -43.77503937 10.77462793 -53.7421875 22.8359375 Z " fill="#02B264" transform="translate(655.7421875,126.1640625)"/>
<path d="M0 0 C1.22976563 0.24363281 2.45953125 0.48726563 3.7265625 0.73828125 C9.43336565 2.22302768 14.41671874 4.47777697 19.3125 7.75 C20.08464844 8.25660156 20.85679687 8.76320313 21.65234375 9.28515625 C22.22082031 9.74792969 22.78929687 10.21070313 23.375 10.6875 C23.375 11.3475 23.375 12.0075 23.375 12.6875 C24.365 13.0175 25.355 13.3475 26.375 13.6875 C26.375 14.3475 26.375 15.0075 26.375 15.6875 C27.035 15.6875 27.695 15.6875 28.375 15.6875 C39.44422329 27.66563312 40.29848123 43.51111 39.79296875 58.890625 C39.4253351 65.34532444 38.37977631 70.9190714 35.375 76.6875 C34.91609375 77.57179688 34.4571875 78.45609375 33.984375 79.3671875 C26.5794777 92.50113691 17.80265195 99.22179821 3.375 103.6875 C-14.42020286 106.95807952 -30.79785742 104.64807674 -45.875 94.5 C-57.82153284 82.28195505 -62.37040617 69.12293036 -62.875 52.1875 C-62.41502681 37.60364406 -59.28487039 23.32051933 -48.625 12.6875 C-47.965 12.6875 -47.305 12.6875 -46.625 12.6875 C-46.295 11.6975 -45.965 10.7075 -45.625 9.6875 C-39.74584593 4.39748872 -33.07521371 1.92648816 -25.5 0.25 C-24.76080322 0.08636963 -24.02160645 -0.07726074 -23.26000977 -0.24584961 C-15.2862535 -1.82859565 -7.97272599 -1.63650691 0 0 Z M-26.625 24.6875 C-27.5325 25.05875 -28.44 25.43 -29.375 25.8125 C-34.59162208 30.15968507 -37.42948945 38.16653337 -38.625 44.6875 C-39.21004439 53.22287974 -38.78737673 60.70767087 -35.625 68.6875 C-35.233125 69.76 -34.84125 70.8325 -34.4375 71.9375 C-30.40743259 78.05208503 -23.73819191 82.10533783 -16.625 83.6875 C-8.02113389 84.83373874 -0.77879049 82.45669366 6.375 77.6875 C6.375 77.0275 6.375 76.3675 6.375 75.6875 C7.365 75.3575 8.355 75.0275 9.375 74.6875 C10.80098197 72.73863098 10.80098197 72.73863098 12 70.375 C12.42539062 69.59511719 12.85078125 68.81523437 13.2890625 68.01171875 C15.66937012 62.91717547 15.59074332 58.02817179 15.625 52.5 C15.645625 51.68724609 15.66625 50.87449219 15.6875 50.03710938 C15.73962771 41.84654359 13.82581528 33.99897032 8.375 27.6875 C-2.99874955 20.00541775 -14.28818305 17.84501802 -26.625 24.6875 Z " fill="#D4D9F6" transform="translate(426.625,118.3125)"/>
<path d="M0 0 C1.30601418 -0.0049926 1.30601418 -0.0049926 2.63841248 -0.01008606 C4.49550854 -0.01516668 6.35261379 -0.01749404 8.2097168 -0.01733398 C10.99479358 -0.01948204 13.77944863 -0.03751592 16.56445312 -0.05664062 C35.80848505 -0.11986966 53.36898868 0.30571402 68.1640625 14.3359375 C77.41020035 25.56449687 79.67933152 37.21430499 79.74609375 51.41796875 C79.76671875 52.49949219 79.78734375 53.58101562 79.80859375 54.6953125 C79.87292634 68.02824082 75.67863846 80.52387415 66.421875 90.35546875 C52.4978206 103.46046112 35.39518956 102.72266324 17.44507599 102.4499054 C12.27786681 102.37889654 7.1103113 102.3349242 1.94287109 102.28417969 C-0.23947226 102.2621052 -2.42181485 102.23995564 -4.60415649 102.2177124 C-5.54764765 102.20813381 -6.4911388 102.19855522 -7.4632206 102.18868637 C-8.13664686 102.18184956 -8.81007313 102.17501274 -9.50390625 102.16796875 C-9.52702715 89.01647851 -9.54482004 75.86499306 -9.55571842 62.71348667 C-9.56094781 56.60740506 -9.56804645 50.50133731 -9.5793457 44.39526367 C-9.59017262 38.50791728 -9.59618267 32.62058426 -9.59878349 26.73322868 C-9.6006381 24.48164598 -9.60425938 22.23006406 -9.60963631 19.97848701 C-9.61684414 16.83663448 -9.6178973 13.69483792 -9.61743164 10.55297852 C-9.62102692 9.6121492 -9.62462219 8.67131989 -9.62832642 7.70198059 C-9.61442665 -0.90487925 -7.88657859 0.0104298 0 0 Z M14.49609375 20.16796875 C14.49609375 40.62796875 14.49609375 61.08796875 14.49609375 82.16796875 C33.9032679 82.84469 33.9032679 82.84469 49.55859375 74.73046875 C56.85436252 65.08122619 56.41902881 52.88327957 55.1875 41.25390625 C54.02992568 34.47236468 51.70987371 30.28335849 46.68359375 25.48046875 C37.4973728 19.38254906 24.86645778 20.16796875 14.49609375 20.16796875 Z " fill="#D6DBF8" transform="translate(485.50390625,118.83203125)"/>
<path d="M0 0 C5.44730789 2.7499211 10.72684391 5.67858117 15.81787109 9.04614258 C19.11098122 11.01055436 22.55719224 12.64216639 26.00146484 14.32348633 C31.31616512 16.92237963 36.27272634 19.66351112 41.11474609 23.08520508 C43.10039797 24.41029941 45.09356513 25.43228965 47.25146484 26.44848633 C52.15803281 28.82357799 55.76808322 31.528556 58.93896484 36.07348633 C60.88655531 41.80805825 61.02448723 47.64694364 58.75146484 53.32348633 C56.07482299 58.18109562 53.44040319 59.85285051 48.43896484 62.19848633 C44.68795543 64.02245387 41.16958457 65.87155787 37.75146484 68.26098633 C33.20246805 71.42695479 28.38579585 73.96034013 23.46704102 76.49487305 C20.56399634 78.00168601 17.84387108 79.53388466 15.12255859 81.36254883 C7.26662296 86.55970676 -3.09448438 92.86631787 -12.79541016 91.90942383 C-19.62381282 90.23970493 -24.01850104 87.20293092 -27.93603516 81.38598633 C-28.95220279 77.61457624 -29.06768214 74.02407894 -29.08129883 70.13037109 C-29.08767868 68.88880753 -29.09405853 67.64724396 -29.10063171 66.36805725 C-29.10216048 65.02116943 -29.10327439 63.67428107 -29.10400391 62.32739258 C-29.10722017 60.93643663 -29.11058452 59.54548101 -29.11408997 58.15452576 C-29.12006605 55.24363419 -29.12193139 52.33277226 -29.12133789 49.421875 C-29.12123625 45.70192259 -29.13489689 41.98216097 -29.1521101 38.26225376 C-29.16325659 35.39083492 -29.1652563 32.51946186 -29.16472816 29.64802361 C-29.16590396 28.2769702 -29.17030316 26.90591546 -29.17806053 25.5348835 C-29.1879153 23.61361295 -29.18370403 21.69228605 -29.17895508 19.77099609 C-29.1803801 18.68021255 -29.18180511 17.58942902 -29.18327332 16.46559143 C-28.6256318 9.51959384 -25.86443259 5.06619109 -20.93603516 0.38598633 C-13.71669822 -4.58733467 -7.40529899 -3.54797416 0 0 Z " fill="#D9DDFA" transform="translate(81.93603515625,157.614013671875)"/>
<path d="M0 0 C4.2815471 2.61919068 6.6082764 5.93842149 8.625 10.5 C9.30848321 13.97739167 9.34703204 17.35789769 9.33203125 20.89453125 C9.34715256 21.88136398 9.36227386 22.86819672 9.37785339 23.88493347 C9.42053664 27.02768688 9.42951728 30.16948711 9.4375 33.3125 C9.46068194 35.37958324 9.48605484 37.44664313 9.51367188 39.51367188 C9.57517382 44.54928723 9.59909486 49.58423053 9.61090088 54.62017822 C9.62463852 57.42616667 9.66126314 60.23094985 9.70458984 63.03662109 C9.7237332 64.73665252 9.74278155 66.43668502 9.76171875 68.13671875 C9.78586601 69.28077934 9.78586601 69.28077934 9.8105011 70.44795227 C9.86542631 77.68127016 8.05930268 82.7987537 3.625 88.5 C-0.46833359 91.89161926 -5.1656299 92.6599368 -10.375 92.5 C-17.54960663 91.58342425 -23.17357096 88.77955851 -29.375 85.1875 C-30.21289062 84.71376953 -31.05078125 84.24003906 -31.9140625 83.75195312 C-33.58618524 82.80588368 -35.25582456 81.85541042 -36.92285156 80.90039062 C-42.4528764 77.74226414 -48.03372144 74.67314863 -53.625 71.625 C-54.99785156 70.87089844 -54.99785156 70.87089844 -56.3984375 70.1015625 C-58.51348321 68.96354578 -60.64578079 67.85733969 -62.7890625 66.7734375 C-70.44741538 62.84917993 -75.94029526 59.67021256 -79.375 51.5 C-80.2409226 45.67167479 -80.41625476 40.12392646 -77 35.125 C-73.16183989 30.77568306 -68.42434603 28.22764391 -63.375 25.5 C-61.39292708 24.33827769 -59.41383975 23.17144911 -57.4375 22 C-53.70207804 19.82139939 -49.94205708 17.71906711 -46.125 15.6875 C-41.35734523 13.12402186 -36.81430377 10.2776375 -32.25 7.375 C-12.27939346 -5.18000779 -12.27939346 -5.18000779 0 0 Z " fill="#D8DDF9" transform="translate(135.375,77.5)"/>
<path d="M0 0 C5.6797833 0.49822661 9.73864237 1.692387 15 4 C28.53200148 8.53833996 44.74097865 6.63017778 57.6484375 0.8046875 C60.59509876 -0.20363845 62.04510414 0.06911497 65 1 C71.94522408 8.35781165 70.78154764 19.8258191 70.8125 29.1875 C70.83569413 30.81709004 70.86106948 32.44665055 70.88867188 34.07617188 C70.95522394 38.38434198 70.98638607 42.69132324 71 47 C71.02054443 48.26038086 71.04108887 49.52076172 71.06225586 50.81933594 C70.9528807 56.40733452 68.36818535 61.02750525 66 66 C65.484375 67.093125 64.96875 68.18625 64.4375 69.3125 C59.10392376 75.1931097 51.20445267 79.70110174 43.19433594 80.16113281 C39.71278925 80.20667784 36.23181956 80.23526214 32.75 80.25 C31.54730469 80.270625 30.34460938 80.29125 29.10546875 80.3125 C18.5173379 80.35899015 10.10478445 78.16097406 2 71 C-4.20582176 62.98139022 -6.31230859 55.07258624 -6.30078125 45.13671875 C-6.30506638 44.30469437 -6.3093515 43.47266998 -6.31376648 42.61543274 C-6.31948197 40.86317856 -6.32003067 39.11090066 -6.31567383 37.35864258 C-6.31252135 34.70547093 -6.33598145 32.05342421 -6.36132812 29.40039062 C-6.40074967 18.81648351 -6.3111208 9.01588685 0 0 Z " fill="#00B464" transform="translate(156,168)"/>
<path d="M0 0 C7.50339846 6.11047335 13.97409829 14.55645327 16.375 24 C16.375 26.31 16.375 28.62 16.375 31 C8.125 31 -0.125 31 -8.625 31 C-10.275 27.7 -11.925 24.4 -13.625 21 C-20.7264181 16.136015 -27.07981772 14.59454239 -35.625 16 C-43.23334563 18.56050093 -47.64960645 22.04921291 -51.25 29.25 C-55.76514156 41.56402245 -55.90999936 53.16397875 -50.59375 65.3671875 C-47.45546773 70.98640912 -42.86199865 74.64243105 -36.7109375 76.61328125 C-29.43618017 77.96197222 -23.15261257 77.39979821 -16.625 74 C-15.635 73.67 -14.645 73.34 -13.625 73 C-13.625 72.34 -13.625 71.68 -13.625 71 C-12.965 70.67 -12.305 70.34 -11.625 70 C-10.635 67.69 -9.645 65.38 -8.625 63 C-0.375 63 7.875 63 16.375 63 C15.248706 73.13664596 15.248706 73.13664596 12.9375 77.375 C12.50566406 78.18710938 12.07382812 78.99921875 11.62890625 79.8359375 C10.6088843 81.59634921 9.50357898 83.30713153 8.375 85 C7.715 85 7.055 85 6.375 85 C6.148125 85.5775 5.92125 86.155 5.6875 86.75 C2.01895269 93.03893825 -5.34754037 95.77590384 -12.0546875 97.6953125 C-28.81937912 101.31322467 -45.93949938 99.58780871 -60.734375 90.73828125 C-67.38124103 86.23602371 -70.55048257 80.58708478 -73.8125 73.5 C-74.16763672 72.75363281 -74.52277344 72.00726563 -74.88867188 71.23828125 C-78.66317598 63.14494227 -78.80758216 56.05435878 -78.8125 47.1875 C-78.82474609 46.03701172 -78.83699219 44.88652344 -78.84960938 43.70117188 C-78.87359094 29.75189715 -74.53922273 15.59899591 -64.625 5.3125 C-63.31999335 4.1749942 -61.9881359 3.06715619 -60.625 2 C-59.80902344 1.28650391 -59.80902344 1.28650391 -58.9765625 0.55859375 C-44.13134055 -10.69287537 -15.25172932 -9.77736253 0 0 Z " fill="#D4D9F6" transform="translate(339.625,124)"/>
<path d="M0 0 C5.6797833 0.49822661 9.73864237 1.692387 15 4 C17.97874971 4.78287653 20.97624366 5.41718982 24 6 C21 8 21 8 17.93359375 7.609375 C16.77988281 7.32578125 15.62617188 7.0421875 14.4375 6.75 C13.28121094 6.47671875 12.12492187 6.2034375 10.93359375 5.921875 C8 5 8 5 6 3 C3.42938689 2.35232207 3.42938689 2.35232207 1 2 C1.165 2.763125 1.33 3.52625 1.5 4.3125 C2 7 2 7 2 10 C0.68 10.33 -0.64 10.66 -2 11 C-3.11676713 15.5039957 -3.17810458 19.94233373 -3.203125 24.5546875 C-3.20882507 25.37446075 -3.21452515 26.19423401 -3.22039795 27.03884888 C-3.22981745 28.76856202 -3.23636977 30.49829287 -3.24023438 32.22802734 C-3.24994234 34.85937076 -3.28099499 37.48993325 -3.3125 40.12109375 C-3.3190309 41.80728706 -3.32428103 43.49348592 -3.328125 45.1796875 C-3.3404718 45.95907684 -3.3528186 46.73846619 -3.36553955 47.54147339 C-3.34438631 52.78641243 -2.31730979 56.29310139 0 61 C1.1664386 64.30490937 2.21187349 67.58478513 3 71 C-2.15951223 66.76182924 -4.60555432 60.4035807 -6 54 C-6.11911474 51.13511007 -6.1879227 48.2951761 -6.203125 45.4296875 C-6.20882507 44.59341827 -6.21452515 43.75714905 -6.22039795 42.89553833 C-6.22983385 41.12535867 -6.23637633 39.35516155 -6.24023438 37.58496094 C-6.24989089 34.90527727 -6.28090675 32.22637722 -6.3125 29.546875 C-6.37836475 18.89743503 -6.35441944 9.07774206 0 0 Z " fill="#0E9060" transform="translate(156,168)"/>
<path d="M0 0 C5.54252199 -0.36950147 5.54252199 -0.36950147 7.625 1.3125 C8.07875 1.869375 8.5325 2.42625 9 3 C14.76837287 7.80697739 20.67775272 8.55760945 27.9375 9.25 C28.86522217 9.34007324 29.79294434 9.43014648 30.7487793 9.52294922 C38.45689723 10.16456983 45.41787496 9.65659875 53 8 C53 7.34 53 6.68 53 6 C56.3 5.34 59.6 4.68 63 4 C63 3.01 63 2.02 63 1 C65.97 0.505 65.97 0.505 69 0 C61.46255483 9.09691659 49.26005021 11.66969871 38 13 C24.91593592 13.25529881 13.34221948 9.21408833 2 3 C2 2.34 2 1.68 2 1 C1.34 0.67 0.68 0.34 0 0 Z " fill="#0F9266" transform="translate(589,211)"/>
<path d="M0 0 C6.94522408 7.35781165 5.78154764 18.8258191 5.8125 28.1875 C5.83569413 29.81709004 5.86106948 31.44665055 5.88867188 33.07617188 C5.99126388 39.71734505 6.00597144 46.35812501 6 53 C5.34 53 4.68 53 4 53 C3.98541748 51.77482666 3.97083496 50.54965332 3.95581055 49.28735352 C3.89749702 44.70796661 3.82026781 40.12905452 3.73754883 35.55004883 C3.7044542 33.57454174 3.67637496 31.59894361 3.65356445 29.62329102 C3.61973244 26.77060428 3.5674043 23.91874035 3.51171875 21.06640625 C3.50532883 20.19415909 3.4989389 19.32191193 3.49235535 18.42323303 C3.35242865 12.48384119 2.1824698 7.52183798 0 2 C-1.65 2 -3.3 2 -5 2 C-5.33 2.66 -5.66 3.32 -6 4 C-8.32854865 4.36526253 -10.66298962 4.69350684 -13 5 C-13.90621094 5.33773437 -14.81242187 5.67546875 -15.74609375 6.0234375 C-19.52246684 7.15680277 -22.97819756 7.22317526 -26.875 7.125 C-27.56335938 7.11597656 -28.25171875 7.10695312 -28.9609375 7.09765625 C-30.64077838 7.07432513 -32.32043746 7.03846326 -34 7 C-34 6.67 -34 6.34 -34 6 C-32.24236328 5.74476563 -32.24236328 5.74476563 -30.44921875 5.484375 C-22.35929026 4.25395452 -14.80090802 3.02262579 -7.26171875 -0.328125 C-4.39435106 -1.17991644 -2.84667159 -0.88546642 0 0 Z " fill="#10875D" transform="translate(221,169)"/>
<path d="M0 0 C4.29 0 8.58 0 13 0 C13 0.33 13 0.66 13 1 C9.04 1 5.08 1 1 1 C1 21.46 1 41.92 1 63 C18.29799968 62.63369152 18.29799968 62.63369152 33 57 C33.7425 56.65839844 34.485 56.31679687 35.25 55.96484375 C37.17741305 55.11796121 37.17741305 55.11796121 38 53 C38 53.99 38 54.98 38 56 C37.34 56 36.68 56 36 56 C35.91298828 56.92039062 35.91298828 56.92039062 35.82421875 57.859375 C35 60 35 60 32.83203125 61.265625 C21.07235434 65.0993101 13.69597395 64 0 64 C0 42.88 0 21.76 0 0 Z " fill="#8294B2" transform="translate(499,138)"/>
<path d="M0 0 C1.37687022 3.71754959 0.46151233 5.42741432 -1 9 C-2.89734127 19.24564287 -2.96340358 29.99851292 0 40 C0.125 43 0.125 43 0 45 C0.66 45 1.32 45 2 45 C2.38091797 46.10408203 2.38091797 46.10408203 2.76953125 47.23046875 C3.11371094 48.20628906 3.45789063 49.18210938 3.8125 50.1875 C4.14894531 51.15042969 4.48539063 52.11335938 4.83203125 53.10546875 C5.97962401 55.94950298 7.35307674 58.41871912 9 61 C8.34 61 7.68 61 7 61 C0.3462902 52.18041985 -4.7316726 41.11642102 -5 30 C-5.03867187 29.14921875 -5.07734375 28.2984375 -5.1171875 27.421875 C-5.36244261 17.88417634 -4.29833852 8.59667704 0 0 Z " fill="#0D7F5F" transform="translate(577,146)"/>
<path d="M0 0 C-8.36566586 4.98722388 -14.50176281 5.20873762 -24.25 5.25 C-25.45269531 5.270625 -26.65539062 5.29125 -27.89453125 5.3125 C-34.66947413 5.34224728 -39.84987735 4.90677439 -46 2 C-46 1.67 -46 1.34 -46 1 C-39.84765625 0.90234375 -39.84765625 0.90234375 -38 1 C-37.67 1.33 -37.34 1.66 -37 2 C-34.85441173 2.08775605 -32.70595579 2.10695219 -30.55859375 2.09765625 C-29.25341797 2.09443359 -27.94824219 2.09121094 -26.60351562 2.08789062 C-25.2148431 2.07953401 -23.82617123 2.07106905 -22.4375 2.0625 C-21.04492344 2.05748666 -19.65234519 2.05292347 -18.25976562 2.04882812 C-14.8398013 2.03699434 -11.41992156 2.0205088 -8 2 C-8 1.34 -8 0.68 -8 0 C-4.71303767 -0.79953138 -3.28976808 -1.09658936 0 0 Z " fill="#06905D" transform="translate(213,243)"/>
<path d="M0 0 C0.33 0 0.66 0 1 0 C1.04487549 1.14476807 1.08975098 2.28953613 1.13598633 3.46899414 C1.30696762 7.73932909 1.49572197 12.00872904 1.68969727 16.27807617 C1.77100395 18.12162035 1.84756877 19.9653803 1.91918945 21.80932617 C2.02332192 24.46865387 2.14481043 27.12672403 2.26953125 29.78515625 C2.29779495 30.60210464 2.32605865 31.41905304 2.35517883 32.26075745 C2.62355726 37.52035687 3.68892736 41.26572422 6 46 C7.1664386 49.30490937 8.21187349 52.58478513 9 56 C3.84914054 51.76893688 1.37817032 45.40025531 0 39 C-0.08231525 37.65726185 -0.11789309 36.31107213 -0.11352539 34.96582031 C-0.11344986 34.18531311 -0.11337433 33.40480591 -0.11329651 32.60064697 C-0.10813522 31.76821472 -0.10297394 30.93578247 -0.09765625 30.078125 C-0.0962413 29.21813904 -0.09482635 28.35815308 -0.09336853 27.47210693 C-0.08778097 24.73136891 -0.07523075 21.99071324 -0.0625 19.25 C-0.05748339 17.3893241 -0.05292077 15.52864691 -0.04882812 13.66796875 C-0.03781561 9.11194754 -0.02055951 4.55598772 0 0 Z " fill="#076047" transform="translate(150,183)"/>
<path d="M0 0 C-1.93166016 0.09087891 -1.93166016 0.09087891 -3.90234375 0.18359375 C-5.58074159 0.26798247 -7.25912636 0.3526313 -8.9375 0.4375 C-10.21270508 0.49647461 -10.21270508 0.49647461 -11.51367188 0.55664062 C-12.32255859 0.59853516 -13.13144531 0.64042969 -13.96484375 0.68359375 C-14.7137085 0.72025146 -15.46257324 0.75690918 -16.23413086 0.79467773 C-18.02461326 0.81771063 -18.02461326 0.81771063 -19 2 C-20.51928038 2.07179964 -22.04167482 2.08392007 -23.5625 2.0625 C-24.38878906 2.05347656 -25.21507812 2.04445313 -26.06640625 2.03515625 C-26.70449219 2.02355469 -27.34257813 2.01195313 -28 2 C-28 2.66 -28 3.32 -28 4 C-30.64 4 -33.28 4 -36 4 C-28.80600584 -3.19399416 -8.46624866 -4.55577793 0 0 Z " fill="#0F8F67" transform="translate(635,119)"/>
<path d="M0 0 C2.9719385 1.12451727 5.33440687 2.22293791 8 4 C14.7594686 5.27432605 21.23596316 4.99797265 28 4 C28 4.66 28 5.32 28 6 C21.37593596 8.7890796 14.43311095 9.07441102 7.625 6.75 C4.42301854 5.38883379 2.200161 3.75020125 0 1 C0 0.67 0 0.34 0 0 Z " fill="#0B7956" transform="translate(606,196)"/>
<path d="M0 0 C0.33 0.66 0.66 1.32 1 2 C0.34 2 -0.32 2 -1 2 C-0.67 3.65 -0.34 5.3 0 7 C-1.32 6.67 -2.64 6.34 -4 6 C-5.15454162 7.24196122 -6.29832562 8.49392845 -7.4375 9.75 C-8.07558594 10.44609375 -8.71367187 11.1421875 -9.37109375 11.859375 C-11.12299792 13.86505456 -11.12299792 13.86505456 -11.53515625 16.203125 C-11.68855469 16.79609375 -11.84195313 17.3890625 -12 18 C-12.99 18.33 -13.98 18.66 -15 19 C-14.11169415 11.44940029 -9.30605981 7.12008508 -3.8046875 2.41796875 C-2 1 -2 1 0 0 Z " fill="#919FBA" transform="translate(167,78)"/>
<path d="M0 0 C0.495 1.485 0.495 1.485 1 3 C0.34 3 -0.32 3 -1 3 C-1.08507812 3.92039063 -1.08507812 3.92039063 -1.171875 4.859375 C-2 7 -2 7 -4.203125 8.265625 C-14.76859471 11.67908444 -24.99990259 11.40561982 -36 11 C-36 10.67 -36 10.34 -36 10 C-34.69546875 9.98582031 -33.3909375 9.97164062 -32.046875 9.95703125 C-21.59784987 9.7180078 -13.32324705 9.05534173 -4 4 C-2.66756817 3.33153336 -1.33456675 2.6641941 0 2 C0 1.34 0 0.68 0 0 Z " fill="#4A5982" transform="translate(536,191)"/>
<path d="M0 0 C0.33 0 0.66 0 1 0 C1.45078755 6.42372261 0.78959979 9.73666695 -3 15 C-5 16.5 -5 16.5 -7 17 C-9.25 16.625 -9.25 16.625 -11 16 C-10.0925 15.34 -9.185 14.68 -8.25 14 C-3.76022661 10.28505748 -1.80788186 5.42364559 0 0 Z " fill="#0E855E" transform="translate(649,181)"/>
<path d="M0 0 C3.3924583 5.08868745 3 4.87594155 3 12 C-5.25 12 -13.5 12 -22 12 C-22.33 10.68 -22.66 9.36 -23 8 C-22.34 8 -21.68 8 -21 8 C-21 8.99 -21 9.98 -21 11 C-13.41 11 -5.82 11 2 11 C2 10.01 2 9.02 2 8 C1.34 8 0.68 8 0 8 C0 5.36 0 2.72 0 0 Z " fill="#8194B0" transform="translate(353,143)"/>
<path d="M0 0 C0.56203125 0.23203125 1.1240625 0.4640625 1.703125 0.703125 C-1.62842916 5.91773151 -5.72834925 7.57328289 -11.296875 9.703125 C-11.296875 6.703125 -11.296875 6.703125 -9.46875 4.84375 C-8.66953125 4.21984375 -7.8703125 3.5959375 -7.046875 2.953125 C-6.25796875 2.31890625 -5.4690625 1.6846875 -4.65625 1.03125 C-2.296875 -0.296875 -2.296875 -0.296875 0 0 Z " fill="#C9D7F0" transform="translate(138.296875,211.296875)"/>
<path d="M0 0 C0.33 0 0.66 0 1 0 C1.03738281 1.12277344 1.07476563 2.24554688 1.11328125 3.40234375 C1.44356828 11.44231987 1.88733074 18.47771595 5 26 C5.33 26.99 5.66 27.98 6 29 C5.01 29 4.02 29 3 29 C3 28.01 3 27.02 3 26 C2.34 26 1.68 26 1 26 C-0.30475618 23.39048764 -0.11301572 21.47298715 -0.09765625 18.5546875 C-0.09443359 17.47832031 -0.09121094 16.40195313 -0.08789062 15.29296875 C-0.07951172 14.16503906 -0.07113281 13.03710938 -0.0625 11.875 C-0.05798828 10.73933594 -0.05347656 9.60367188 -0.04882812 8.43359375 C-0.03701615 5.62234362 -0.02054507 2.8111977 0 0 Z " fill="#0A875F" transform="translate(596,162)"/>
<path d="M0 0 C3.6507185 5.47607775 4.27637911 9.79737617 4.125 16.3125 C4.11597656 17.05306641 4.10695313 17.79363281 4.09765625 18.55664062 C4.07424213 20.37123467 4.03837615 22.18566071 4 24 C3.67 24 3.34 24 3 24 C2.89042969 23.01 2.78085937 22.02 2.66796875 21 C1.84233747 13.98390969 0.91981529 7.50322497 -2 1 C-1.34 0.67 -0.68 0.34 0 0 Z " fill="#0A7F5C" transform="translate(648,150)"/>
<path d="M0 0 C0 0.33 0 0.66 0 1 C-0.87011719 1.14695313 -0.87011719 1.14695313 -1.7578125 1.296875 C-7.1389383 2.32692548 -10.59631192 3.77778921 -15 7 C-15.66 7 -16.32 7 -17 7 C-17.33 8.32 -17.66 9.64 -18 11 C-18.99 10.67 -19.98 10.34 -21 10 C-14.90537887 2.11157194 -10.0334851 -0.60200911 0 0 Z " fill="#8A9AB5" transform="translate(76,155)"/>
<path d="M0 0 C1 3 1 3 1 5 C-0.62102968 6.71108689 -2.29503463 8.37253306 -4 10 C-4.721875 10.763125 -5.44375 11.52625 -6.1875 12.3125 C-8 14 -8 14 -10 14 C-8.51131293 9.39860359 -6.25370145 6.49772906 -3 3 C-2.34 3 -1.68 3 -1 3 C-0.67 2.01 -0.34 1.02 0 0 Z " fill="#95A2BF" transform="translate(381,128)"/>
<path d="M0 0 C0.54527344 0.19335938 1.09054688 0.38671875 1.65234375 0.5859375 C7.0438052 2.44760453 12.40921726 3.87655666 18 5 C15 7 15 7 11.93359375 6.6796875 C10.77988281 6.41414062 9.62617188 6.14859375 8.4375 5.875 C7.28121094 5.62492188 6.12492188 5.37484375 4.93359375 5.1171875 C2 4 2 4 0.59765625 1.8828125 C0.40042969 1.26148438 0.20320312 0.64015625 0 0 Z " fill="#0C7755" transform="translate(162,169)"/>
<path d="M0 0 C1.9375 0.3125 1.9375 0.3125 4 1 C4.33 1.99 4.66 2.98 5 4 C5.66 3.67 6.32 3.34 7 3 C6.19642857 11.03571429 6.19642857 11.03571429 4 15 C3.87882813 14.33613281 3.75765625 13.67226562 3.6328125 12.98828125 C2.77452292 8.46575541 1.96028689 4.20061476 0 0 Z " fill="#C0C9E5" transform="translate(536,148)"/>
<path d="M0 0 C0.8971875 0.5259375 0.8971875 0.5259375 1.8125 1.0625 C1.12542969 1.40023437 0.43835938 1.73796875 -0.26953125 2.0859375 C-1.17058594 2.53195313 -2.07164062 2.97796875 -3 3.4375 C-4.33998047 4.09878906 -4.33998047 4.09878906 -5.70703125 4.7734375 C-8.33306381 6.08116905 -8.33306381 6.08116905 -11.1875 8.0625 C-11.75 6.125 -11.75 6.125 -12.1875 4.0625 C-11.1875 3.0625 -11.1875 3.0625 -8.625 3 C-7.4184375 3.0309375 -7.4184375 3.0309375 -6.1875 3.0625 C-5.8575 2.0725 -5.5275 1.0825 -5.1875 0.0625 C-2.1875 -0.9375 -2.1875 -0.9375 0 0 Z " fill="#A5B2CC" transform="translate(302.1875,138.9375)"/>
<path d="M0 0 C0.66 0.33 1.32 0.66 2 1 C0.25 5.875 0.25 5.875 -2 7 C-3.35432675 8.31200404 -4.68733482 9.64631404 -6 11 C-6.66 11.66 -7.32 12.32 -8 13 C-8.66 12.34 -9.32 11.68 -10 11 C-8.71937515 9.2925002 -7.38232443 7.62626404 -6 6 C-5.34 6 -4.68 6 -4 6 C-3.71125 5.38125 -3.4225 4.7625 -3.125 4.125 C-2 2 -2 2 0 0 Z " fill="#098056" transform="translate(592,126)"/>
<path d="M0 0 C0.66 0.33 1.32 0.66 2 1 C0.88321917 2.6721852 -0.24366352 4.33762803 -1.375 6 C-2.00148438 6.928125 -2.62796875 7.85625 -3.2734375 8.8125 C-3.84320312 9.534375 -4.41296875 10.25625 -5 11 C-5.66 11 -6.32 11 -7 11 C-7 9.35 -7 7.7 -7 6 C-6.01 6 -5.02 6 -4 6 C-3.67 4.35 -3.34 2.7 -3 1 C-2.01 1.33 -1.02 1.66 0 2 C0 1.34 0 0.68 0 0 Z " fill="#078F5D" transform="translate(665,200)"/>
<path d="M0 0 C6.4596331 1.32505294 10.38917374 5.59409935 15 10 C14.01 10 13.02 10 12 10 C11.1028125 9.071875 11.1028125 9.071875 10.1875 8.125 C8.09185984 5.77387596 8.09185984 5.77387596 4.875 5 C2 4 2 4 0.625 1.875 C0.41875 1.25625 0.2125 0.6375 0 0 Z " fill="#07684C" transform="translate(648,123)"/>
<path d="M0 0 C5.48780488 -0.36585366 5.48780488 -0.36585366 7.75 1.25 C9.0672814 3.09419396 10.07360134 4.93341837 11 7 C4.25 4.125 4.25 4.125 2 3 C2 2.34 2 1.68 2 1 C1.34 0.67 0.68 0.34 0 0 Z " fill="#0A7E58" transform="translate(589,211)"/>
<path d="M0 0 C6.34257749 0.46982055 6.34257749 0.46982055 8.9375 2.5625 C9.288125 3.036875 9.63875 3.51125 10 4 C8.00045254 4.04254356 5.99958364 4.04080783 4 4 C3.67 3.67 3.34 3.34 3 3 C2.67 3.99 2.34 4.98 2 6 C0 5 0 5 -0.6875 3 C-0.790625 2.34 -0.89375 1.68 -1 1 C-0.67 0.67 -0.34 0.34 0 0 Z " fill="#AFB6D7" transform="translate(98,169)"/>
<path d="M0 0 C0 0.33 0 0.66 0 1 C-0.78503906 1.10957031 -1.57007813 1.21914062 -2.37890625 1.33203125 C-8.38199715 2.2380192 -13.56153426 3.28076713 -19 6 C-19.33 5.01 -19.66 4.02 -20 3 C-13.16914355 0.55833216 -7.2484945 -0.41640288 0 0 Z " fill="#0B6D50" transform="translate(627,138)"/>
<path d="M0 0 C0.99 0.33 1.98 0.66 3 1 C2.34 1 1.68 1 1 1 C1.33 2.32 1.66 3.64 2 5 C1.01 5.495 1.01 5.495 0 6 C-2.125 5.0625 -2.125 5.0625 -4 4 C-4.33 4.99 -4.66 5.98 -5 7 C-6.32 6.67 -7.64 6.34 -9 6 C-7.57140593 4.96674014 -6.13177617 3.94872366 -4.6875 2.9375 C-3.88699219 2.36902344 -3.08648437 1.80054687 -2.26171875 1.21484375 C-1.51535156 0.81394531 -0.76898438 0.41304688 0 0 Z " fill="#8799B2" transform="translate(287,121)"/>
<path d="M0 0 C1.98270912 0.95098266 3.96108379 1.91100703 5.9375 2.875 C7.03964844 3.40867188 8.14179687 3.94234375 9.27734375 4.4921875 C12 6 12 6 13 8 C11.68 8.33 10.36 8.66 9 9 C8.67 8.34 8.34 7.68 8 7 C7.01 7 6.02 7 5 7 C4.67 6.01 4.34 5.02 4 4 C1.99983534 2.79117904 1.99983534 2.79117904 0 2 C0 1.34 0 0.68 0 0 Z " fill="#879AB2" transform="translate(111,174)"/>
<path d="M0 0 C2.32509781 2.13802098 3.82167236 4.18598137 5.25 7 C5.60578125 7.680625 5.9615625 8.36125 6.328125 9.0625 C7 11 7 11 6 14 C5.67 14 5.34 14 5 14 C5 12.35 5 10.7 5 9 C3.68 8.67 2.36 8.34 1 8 C0.67 5.36 0.34 2.72 0 0 Z " fill="#0B9061" transform="translate(665,139)"/>
<path d="M0 0 C-6.14285714 5.57142857 -6.14285714 5.57142857 -11 6 C-11.33 5.34 -11.66 4.68 -12 4 C-10.02 3.67 -8.04 3.34 -6 3 C-6 2.01 -6 1.02 -6 0 C-3 -1 -3 -1 0 0 Z " fill="#0A7352" transform="translate(658,212)"/>
<path d="M0 0 C4 4.75 4 4.75 4 7 C1 8 1 8 -1.1875 7.0625 C-1.785625 6.711875 -2.38375 6.36125 -3 6 C-2.67 5.01 -2.34 4.02 -2 3 C-1.34 3 -0.68 3 0 3 C0 2.01 0 1.02 0 0 Z " fill="#AFBAD5" transform="translate(556,138)"/>
<path d="M0 0 C0.33 0.66 0.66 1.32 1 2 C2.90178785 2.60061233 2.90178785 2.60061233 5 3 C5.99 3.33 6.98 3.66 8 4 C8.6875 6.0625 8.6875 6.0625 9 8 C7.58280758 7.37619308 6.1662694 6.7508997 4.75 6.125 C3.96109375 5.77695313 3.1721875 5.42890625 2.359375 5.0703125 C0.21131392 4.09586095 -1.89829202 3.07013571 -4 2 C-2.68 1.34 -1.36 0.68 0 0 Z " fill="#0B694C" transform="translate(632,137)"/>
<path d="M0 0 C2.34770643 3.52155964 2.37669614 5.50771843 2.625 9.6875 C2.69976562 10.86699219 2.77453125 12.04648438 2.8515625 13.26171875 C2.90054688 14.16535156 2.94953125 15.06898438 3 16 C-0.13107836 12.61416198 -0.33550778 10.28890538 -0.1875 5.75 C-0.14689453 4.13351563 -0.14689453 4.13351563 -0.10546875 2.484375 C-0.07066406 1.66453125 -0.03585938 0.8446875 0 0 Z " fill="#7D8BAA" transform="translate(56,117)"/>
<path d="M0 0 C2.56640625 0.171875 2.56640625 0.171875 5.5625 0.75 C6.55378906 0.93046875 7.54507813 1.1109375 8.56640625 1.296875 C9.36949219 1.52890625 10.17257812 1.7609375 11 2 C11.33 2.66 11.66 3.32 12 4 C9.36 4 6.72 4 4 4 C4 3.34 4 2.68 4 2 C2.02 2 0.04 2 -2 2 C-1.34 1.34 -0.68 0.68 0 0 Z " fill="#0E895E" transform="translate(636,119)"/>
<path d="M0 0 C0.86625 0.2784375 0.86625 0.2784375 1.75 0.5625 C4.20692525 1.04023546 5.64397534 0.75729364 8 0 C5.62949916 2.62002725 3.12723983 4.35819909 0 6 C-0.99 6 -1.98 6 -3 6 C-2.67 5.01 -2.34 4.02 -2 3 C-1.34 3 -0.68 3 0 3 C0 2.01 0 1.02 0 0 Z " fill="#97A3C1" transform="translate(108,227)"/>
<path d="M0 0 C0 0.99 0 1.98 0 3 C-3.64977257 5.90322818 -5.25852179 7 -10 7 C-8.72070154 4.44140308 -7.55728932 4.13851266 -5 2.9375 C-2.30092276 1.75531476 -2.30092276 1.75531476 0 0 Z " fill="#7D96AF" transform="translate(140,162)"/>
<path d="M0 0 C1 2 1 2 0.22265625 4.6015625 C-0.16019531 5.59929687 -0.54304687 6.59703125 -0.9375 7.625 C-1.50791016 9.12933594 -1.50791016 9.12933594 -2.08984375 10.6640625 C-2.39019531 11.43492187 -2.69054687 12.20578125 -3 13 C-3.33 13 -3.66 13 -4 13 C-4.29380531 4.18584071 -4.29380531 4.18584071 -2 1 C-1.34 0.67 -0.68 0.34 0 0 Z " fill="#087C5C" transform="translate(601,149)"/>
<path d="M0 0 C0.98484375 0.01804687 1.9696875 0.03609375 2.984375 0.0546875 C4.10585937 0.08949219 4.10585937 0.08949219 5.25 0.125 C2.34064546 1.75237868 -0.06373639 2.47472896 -3.375 2.8125 C-4.15101562 2.89886719 -4.92703125 2.98523438 -5.7265625 3.07421875 C-7.75 3.125 -7.75 3.125 -9.75 2.125 C-6.40060119 0.09941119 -3.88037449 -0.09238987 0 0 Z " fill="#6C7D9A" transform="translate(125.75,75.875)"/>
<path d="M0 0 C0.66 0.33 1.32 0.66 2 1 C0.35 4.63 -1.3 8.26 -3 12 C-3.33 12 -3.66 12 -4 12 C-3.54177532 8.53058454 -3.10868317 5.32604951 -2 2 C-1.34 2 -0.68 2 0 2 C0 1.34 0 0.68 0 0 Z " fill="#088056" transform="translate(671,188)"/>
<path d="M0 0 C1.98 0.99 1.98 0.99 4 2 C4 2.66 4 3.32 4 4 C4.99 4.33 5.98 4.66 7 5 C7 5.66 7 6.32 7 7 C7.66 7 8.32 7 9 7 C8.67 7.66 8.34 8.32 8 9 C5.5 7.6875 5.5 7.6875 3 6 C3 5.01 3 4.02 3 3 C2.34 3 1.68 3 1 3 C0.67 2.01 0.34 1.02 0 0 Z " fill="#8694AF" transform="translate(446,127)"/>
<path d="M0 0 C-6.4 4.06153846 -6.4 4.06153846 -9.4375 3.75 C-9.953125 3.5025 -10.46875 3.255 -11 3 C-7.83370093 -0.83288835 -4.68080329 -1.56026776 0 0 Z " fill="#098A5E" transform="translate(213,243)"/>
<path d="M0 0 C1.21386936 3.64160808 0.6674695 4.33165469 -0.9375 7.6875 C-1.31777344 8.49574219 -1.69804687 9.30398437 -2.08984375 10.13671875 C-2.39019531 10.75160156 -2.69054687 11.36648437 -3 12 C-3.33 12 -3.66 12 -4 12 C-4 10.35 -4 8.7 -4 7 C-3.34 7 -2.68 7 -2 7 C-2.04125 6.21625 -2.0825 5.4325 -2.125 4.625 C-2 2 -2 2 0 0 Z " fill="#0C8C5F" transform="translate(225,222)"/>
<path d="M0 0 C1.95216435 1.95216435 2.84826645 3.53199953 4 6 C0.22454612 4.90931332 -2.47043472 4.0916909 -5 1 C-2.625 0.375 -2.625 0.375 0 0 Z " fill="#8C9CB7" transform="translate(388,212)"/>
<path d="M0 0 C0.33 0.99 0.66 1.98 1 3 C0.34 3 -0.32 3 -1 3 C-1.33 4.32 -1.66 5.64 -2 7 C-3.98 7.33 -5.96 7.66 -8 8 C-8 7.34 -8 6.68 -8 6 C-2.58823529 2 -2.58823529 2 0 2 C0 1.34 0 0.68 0 0 Z " fill="#8597B2" transform="translate(536,191)"/>
<path d="M0 0 C0.33 0 0.66 0 1 0 C1.28571429 8.57142857 1.28571429 8.57142857 -1 12 C-2.1875 10.5 -2.1875 10.5 -3 8 C-2.27101296 5.21175762 -1.1843275 2.62334908 0 0 Z " fill="#068356" transform="translate(649,181)"/>
<path d="M0 0 C0.33 0.66 0.66 1.32 1 2 C1.99 2.33 2.98 2.66 4 3 C1.69631264 4.06652192 -0.64018187 5.06421005 -3 6 C-3.66 5.67 -4.32 5.34 -5 5 C-4.34 4.01 -3.68 3.02 -3 2 C-2.01 2 -1.02 2 0 2 C0 1.34 0 0.68 0 0 Z " fill="#8F9BB3" transform="translate(540,212)"/>
<path d="M0 0 C0.99 0.33 1.98 0.66 3 1 C3 1.99 3 2.98 3 4 C5.475 4.99 5.475 4.99 8 6 C7.01 6.495 7.01 6.495 6 7 C4.0546875 6.00390625 4.0546875 6.00390625 1.875 4.5625 C1.15054688 4.08941406 0.42609375 3.61632812 -0.3203125 3.12890625 C-0.87460938 2.75636719 -1.42890625 2.38382813 -2 2 C-1.34 1.34 -0.68 0.68 0 0 Z " fill="#8694AD" transform="translate(97,154)"/>
<path d="M0 0 C1.27875 -0.061875 2.5575 -0.12375 3.875 -0.1875 C4.95394531 -0.23970703 4.95394531 -0.23970703 6.0546875 -0.29296875 C6.69664062 -0.19628906 7.33859375 -0.09960938 8 0 C8.66 0.99 9.32 1.98 10 3 C4.58461538 3.36923077 4.58461538 3.36923077 1.625 1.5 C1.08875 1.005 0.5525 0.51 0 0 Z " fill="#0F9367" transform="translate(167,244)"/>
<path d="M0 0 C1.74627478 2.61941217 2.38722388 4.03824877 3 7 C1.02 6.34 -0.96 5.68 -3 5 C-3 4.01 -3 3.02 -3 2 C-2.01 1.34 -1.02 0.68 0 0 Z " fill="#A1ABC9" transform="translate(117,162)"/>
<path d="M0 0 C0.33 0.99 0.66 1.98 1 3 C-0.40445835 5.2636564 -2.1967913 7.0208685 -4 9 C-4.33 7.68 -4.66 6.36 -5 5 C-4.01 5 -3.02 5 -2 5 C-1.7834375 4.0409375 -1.7834375 4.0409375 -1.5625 3.0625 C-1 1 -1 1 0 0 Z " fill="#9DAECC" transform="translate(220,151)"/>
<path d="M0 0 C0.66 0 1.32 0 2 0 C2 0.66 2 1.32 2 2 C3.98 2 5.96 2 8 2 C7.67 2.99 7.34 3.98 7 5 C7.66 5.33 8.32 5.66 9 6 C4.70042176 5.52226908 2.78280018 4.29813355 0 1 C0 0.67 0 0.34 0 0 Z " fill="#A6B5D3" transform="translate(58,242)"/>
<path d="M0 0 C0.66 0.99 1.32 1.98 2 3 C-0.475 4.485 -0.475 4.485 -3 6 C-3.33 5.01 -3.66 4.02 -4 3 C-2.68 2.01 -1.36 1.02 0 0 Z " fill="#A6B4CA" transform="translate(443,212)"/>
<path d="M0 0 C1.32 0.66 2.64 1.32 4 2 C2.02 3.32 0.04 4.64 -2 6 C-2 5.34 -2 4.68 -2 4 C-2.66 3.67 -3.32 3.34 -4 3 C-2.68 2.67 -1.36 2.34 0 2 C0 1.34 0 0.68 0 0 Z " fill="#9AA8C5" transform="translate(548,207)"/>
<path d="M0 0 C1.65 1.65 3.3 3.3 5 5 C3.02 5.99 3.02 5.99 1 7 C0 6 0 6 -0.0625 2.9375 C-0.041875 1.968125 -0.02125 0.99875 0 0 Z " fill="#0AAC6C" transform="translate(656,129)"/>
<path d="M0 0 C0.96516243 3.00272755 1.22393475 5.04215769 0 8 C-0.99 8.33 -1.98 8.66 -3 9 C-2.44271087 5.65626525 -1.64826111 2.96687001 0 0 Z " fill="#8995AE" transform="translate(155,88)"/>
<path d="M0 0 C3 2 3 2 3.6875 4.625 C3.790625 5.40875 3.89375 6.1925 4 7 C1.525 6.01 1.525 6.01 -1 5 C-0.67 3.35 -0.34 1.7 0 0 Z " fill="#93A1C2" transform="translate(139,82)"/>
<path d="M0 0 C2.475 0.495 2.475 0.495 5 1 C3.515 3.475 3.515 3.475 2 6 C1.34 5.67 0.68 5.34 0 5 C0 3.35 0 1.7 0 0 Z " fill="#09724D" transform="translate(216,234)"/>
<path d="M0 0 C1.98 0.66 3.96 1.32 6 2 C2.5980513 4.09350689 -0.05272412 4.17942163 -4 4 C-2.68 2.68 -1.36 1.36 0 0 Z " fill="#B2BCE8" transform="translate(428,218)"/>
<path d="M0 0 C0.598125 0.20625 1.19625 0.4125 1.8125 0.625 C0.1625 2.275 -1.4875 3.925 -3.1875 5.625 C-3.1875 4.635 -3.1875 3.645 -3.1875 2.625 C-3.8475 2.295 -4.5075 1.965 -5.1875 1.625 C-2.1875 -0.375 -2.1875 -0.375 0 0 Z " fill="#7E92AB" transform="translate(138.1875,211.375)"/>
<path d="M0 0 C1.65 0 3.3 0 5 0 C5.33 0.66 5.66 1.32 6 2 C4.35 2 2.7 2 1 2 C1.33 2.99 1.66 3.98 2 5 C1.01 5.33 0.02 5.66 -1 6 C-0.67 4.02 -0.34 2.04 0 0 Z " fill="#15956E" transform="translate(156,168)"/>
<path d="M0 0 C0.99 0.33 1.98 0.66 3 1 C2.67 2.32 2.34 3.64 2 5 C0.68 4.67 -0.64 4.34 -2 4 C-1.34 2.68 -0.68 1.36 0 0 Z " fill="#DEE4FD" transform="translate(283,211)"/>
<path d="M0 0 C0.66 0.99 1.32 1.98 2 3 C0.35 4.65 -1.3 6.3 -3 8 C-3.36923077 3.44615385 -3.36923077 3.44615385 -1.5 1.1875 C-1.005 0.795625 -0.51 0.40375 0 0 Z " fill="#99ACC4" transform="translate(455,201)"/>
<path d="M0 0 C3.37503669 1.1858237 5.64722731 2.27573689 8 5 C6.02 5 4.04 5 2 5 C1.34 3.35 0.68 1.7 0 0 Z " fill="#A7B4D0" transform="translate(128,184)"/>
<path d="M0 0 C-1.625 1.5625 -1.625 1.5625 -4 3 C-7.25 2.6875 -7.25 2.6875 -10 2 C-3.72972973 -1.24324324 -3.72972973 -1.24324324 0 0 Z " fill="#0D7251" transform="translate(211,172)"/>
<path d="M0 0 C0.94875 0.04125 1.8975 0.0825 2.875 0.125 C2.215 1.445 1.555 2.765 0.875 4.125 C-1.105 3.465 -3.085 2.805 -5.125 2.125 C-3.125 0.125 -3.125 0.125 0 0 Z " fill="#A0B3CE" transform="translate(172.125,161.875)"/>
<path d="M0 0 C0.598125 0.350625 1.19625 0.70125 1.8125 1.0625 C-0.8275 2.0525 -3.4675 3.0425 -6.1875 4.0625 C-5.8575 2.7425 -5.5275 1.4225 -5.1875 0.0625 C-2.1875 -0.9375 -2.1875 -0.9375 0 0 Z " fill="#7E8EAD" transform="translate(302.1875,138.9375)"/>
<path d="M0 0 C2 1 2 1 3.125 4.0625 C3.41375 5.031875 3.7025 6.00125 4 7 C1.13275314 6.42655063 0.1385485 6.1385485 -2 4 C-1.34 3.34 -0.68 2.68 0 2 C0 1.34 0 0.68 0 0 Z " fill="#AEBDD5" transform="translate(219,86)"/>
<path d="M0 0 C0.33 0.66 0.66 1.32 1 2 C0.34 2 -0.32 2 -1 2 C-0.67 3.65 -0.34 5.3 0 7 C-1.32 6.34 -2.64 5.68 -4 5 C-4 4.01 -4 3.02 -4 2 C-2.68 1.34 -1.36 0.68 0 0 Z " fill="#A5B2CD" transform="translate(167,78)"/>
</svg>
