<?xml version="1.0" encoding="UTF-8"?>
<svg version="1.1" xmlns="http://www.w3.org/2000/svg" width="737" height="338">
<path d="M0 0 C2.05722916 0.01387553 4.10990029 -0.02030075 6.16674805 -0.05834961 C16.41582306 -0.11855872 23.82568466 1.89155593 31.43823242 8.88891602 C41.38127092 19.74652645 41.98011771 30.92855462 41.94140625 45.08691406 C41.93824396 47.50509669 41.96177297 49.92205557 41.98706055 52.34008789 C42.03107094 62.82819607 41.28986024 71.85451673 35.75073242 81.07641602 C35.27893555 81.89110352 34.80713867 82.70579102 34.32104492 83.54516602 C32.30817728 85.95689683 30.59064671 86.65176478 27.62573242 87.57641602 C27.62573242 88.23641602 27.62573242 88.89641602 27.62573242 89.57641602 C25.87771096 90.39316397 24.12723053 91.20465053 22.37573242 92.01391602 C21.40120117 92.46637695 20.42666992 92.91883789 19.42260742 93.38500977 C13.75906355 95.7975529 8.58672098 95.79241608 2.50073242 95.82641602 C1.6009668 95.84704102 0.70120117 95.86766602 -0.22583008 95.88891602 C-10.45218107 95.94768815 -19.59173051 93.41968137 -27.37426758 86.57641602 C-34.40217512 78.4283398 -36.84882042 69.40531234 -36.77270508 58.82641602 C-36.77557526 57.92826172 -36.77844543 57.03010742 -36.78140259 56.10473633 C-36.78343041 54.21898767 -36.77799104 52.33321735 -36.76538086 50.44750977 C-36.7493087 47.58374378 -36.76527342 44.72138883 -36.78442383 41.85766602 C-36.78244117 40.01391294 -36.77859702 38.17016074 -36.77270508 36.32641602 C-36.77877777 35.48240234 -36.78485046 34.63838867 -36.79110718 33.76879883 C-36.66563051 23.00586756 -32.68903387 13.89118231 -25.06176758 6.26391602 C-16.8170425 1.08699562 -9.68744319 -0.0910539 0 0 Z " fill="#042342" transform="translate(194.374267578125,71.423583984375)"/>
<path d="M0 0 C0.9420076 -0.00570007 1.8840152 -0.01140015 2.85456848 -0.01727295 C4.86128613 -0.02674899 6.86801952 -0.0332672 8.87475586 -0.03710938 C11.89921894 -0.04669183 14.92296591 -0.07763684 17.94726562 -0.109375 C35.12065328 -0.20425559 54.0054155 0.76995444 67.09765625 13.40234375 C77.77265517 24.90041502 81.31671378 39.96142423 80.95703125 55.3828125 C80.01585989 69.53959843 75.8363961 84.45268157 64.76953125 94.203125 C64.10953125 94.203125 63.44953125 94.203125 62.76953125 94.203125 C62.76953125 94.863125 62.76953125 95.523125 62.76953125 96.203125 C50.83836131 104.18880224 36.08652239 105.3692596 22.0546875 105.3359375 C21.15834091 105.33689423 20.26199432 105.33785095 19.33848572 105.33883667 C17.46027556 105.33951282 15.582063 105.33769826 13.70385742 105.33349609 C10.81619118 105.32809537 7.92867737 105.33348272 5.04101562 105.33984375 C3.21223924 105.33918373 1.38346295 105.33790416 -0.4453125 105.3359375 C-1.31187973 105.33796173 -2.17844696 105.33998596 -3.0712738 105.34207153 C-9.11548881 105.31810494 -9.11548881 105.31810494 -10.23046875 104.203125 C-10.32788943 102.86473027 -10.35678434 101.52125675 -10.35745239 100.17932129 C-10.36027222 99.31273392 -10.36309204 98.44614655 -10.36599731 97.55329895 C-10.36397308 96.5953392 -10.36194885 95.63737946 -10.35986328 94.65039062 C-10.3616156 93.64723312 -10.36336792 92.64407562 -10.36517334 91.61051941 C-10.36959391 88.27678728 -10.36665314 84.94310771 -10.36328125 81.609375 C-10.36395423 79.30391428 -10.3649242 76.99845364 -10.36618042 74.69299316 C-10.36765767 69.85407843 -10.36550196 65.01518213 -10.36083984 60.17626953 C-10.35514255 53.95817855 -10.35842141 47.74013072 -10.36441231 41.52204132 C-10.36801718 36.75929435 -10.36687967 31.9965577 -10.36428452 27.23381042 C-10.36361504 24.94036351 -10.36444437 22.64691568 -10.36676407 20.35346985 C-10.36928939 17.15424094 -10.3654517 13.95508297 -10.35986328 10.75585938 C-10.36188751 9.79789963 -10.36391174 8.83993988 -10.36599731 7.85295105 C-10.36317749 6.98636368 -10.36035767 6.11977631 -10.35745239 5.22692871 C-10.35707537 4.4695919 -10.35669834 3.7122551 -10.35630989 2.93196869 C-10.01359965 -1.7762884 -3.55191947 0.01652702 0 0 Z M14.76953125 21.203125 C14.76953125 41.993125 14.76953125 62.783125 14.76953125 84.203125 C32.92085498 84.86075874 32.92085498 84.86075874 48.76953125 77.203125 C54.74262 69.5401708 56.11773054 61.78305513 56.08203125 52.265625 C56.09814453 51.41033203 56.11425781 50.55503906 56.13085938 49.67382812 C56.13714218 41.43707596 54.00044773 34.74177059 48.76953125 28.203125 C39.08712698 19.28642107 27.72477493 21.203125 14.76953125 21.203125 Z " fill="#072644" transform="translate(499.23046875,114.796875)"/>
<path d="M0 0 C1.423125 0.08701172 1.423125 0.08701172 2.875 0.17578125 C13.64430036 1.27118803 23.06655395 6.0443693 32 12 C32 12.66 32 13.32 32 14 C32.598125 14.24621094 33.19625 14.49242188 33.8125 14.74609375 C41.0673508 18.90467787 44.77798703 29.97608586 47.09375 37.6015625 C48.30988718 42.65723529 48.30110475 47.63581126 48.25 52.8125 C48.24395752 53.78646729 48.23791504 54.76043457 48.23168945 55.76391602 C48.02072207 71.03411887 44.40359735 83.54347241 33.5625 94.75 C32.39094222 95.85055428 31.20404681 96.93508749 30 98 C29.50242187 98.45117188 29.00484375 98.90234375 28.4921875 99.3671875 C19.44964849 106.68301051 7.33664645 108.98588213 -4 109 C-4.96292969 109.01160156 -5.92585937 109.02320313 -6.91796875 109.03515625 C-18.78360283 108.63483121 -30.47791863 104.06679875 -39.59375 96.515625 C-41 95 -41 95 -41 93 C-41.66 93 -42.32 93 -43 93 C-43 92.34 -43 91.68 -43 91 C-43.66 91 -44.32 91 -45 91 C-50.09225572 82.47570344 -53.41601254 74.90303968 -55 65 C-55.15339844 64.12085938 -55.30679688 63.24171875 -55.46484375 62.3359375 C-57.59086067 46.52219369 -53.76236756 31.2869955 -45.06640625 18.05859375 C-34.59597238 5.09425692 -16.39580177 -1.46786739 0 0 Z M-25 32 C-31.76972793 40.7670079 -31.82016756 52.09866743 -30.72265625 62.671875 C-29.49607579 70.1949018 -26.79344557 77.22293499 -20.5625 81.9375 C-13.14662963 86.92310924 -4.60131531 86.84763999 4 86 C11.30758876 83.92178362 16.92882681 79.39590561 21 73 C25.37745305 62.34120165 25.26171766 47.69247756 21.21875 36.91796875 C18.25177581 31.04796378 12.44825847 25.82342596 6.28125 23.46875 C-6.08417216 20.92790983 -16.31645799 22.81963842 -25 32 Z " fill="#02B464" transform="translate(643,113)"/>
<path d="M0 0 C6 6.14906832 6 6.14906832 6 9 C6.66 9 7.32 9 8 9 C16.47511509 27.28387774 17.15963242 46.93984167 11 66 C9.10147456 70.10720603 6.8839238 73.52340542 4 77 C3.4534375 77.66128906 2.906875 78.32257813 2.34375 79.00390625 C-6.89292881 89.09018524 -19.32046767 93.46736965 -32.69140625 94.203125 C-47.73110879 94.38524047 -61.08474933 92.4180508 -72.75 82.3671875 C-74 81 -74 81 -74 79 C-74.5775 78.773125 -75.155 78.54625 -75.75 78.3125 C-81.33677142 75.05355001 -83.21982171 69.56365298 -85.1875 63.75 C-85.44869629 62.98929199 -85.70989258 62.22858398 -85.97900391 61.44482422 C-87.6979383 56.28138849 -88.94888137 51.46969381 -89 46 C-89.03738281 45.15566406 -89.07476562 44.31132812 -89.11328125 43.44140625 C-89.44395333 31.17173172 -87.64345214 14.40407593 -79 5 C-78.34 5 -77.68 5 -77 5 C-76.73703125 4.40960938 -76.4740625 3.81921875 -76.203125 3.2109375 C-71.56374301 -5.31468006 -61.73512009 -9.09137122 -53 -12 C-34.49910535 -16.84954167 -14.15722814 -13.15198117 0 0 Z M-53 13 C-54.0725 13.70125 -55.145 14.4025 -56.25 15.125 C-59.95506497 18.99847701 -61.38895501 22.94999359 -63 28 C-63.3403125 29.04414063 -63.3403125 29.04414063 -63.6875 30.109375 C-66.05940385 38.34515224 -65.19938892 45.15684516 -62.75 53.25 C-62.54560303 53.93578125 -62.34120605 54.6215625 -62.13061523 55.328125 C-60.07338579 61.69488873 -57.33964212 65.67791008 -51.375 68.75 C-50.59898437 69.15734375 -49.82296875 69.5646875 -49.0234375 69.984375 C-42.52338288 73.24695068 -33.4385187 73.21530869 -26.375 71.28125 C-24.41629209 70.33250085 -22.74628968 69.29480991 -21 68 C-19.9275 67.278125 -18.855 66.55625 -17.75 65.8125 C-9.96014298 57.84560078 -9.71070312 47.51617216 -9.7734375 36.9140625 C-10.16094462 30.21954299 -11.24330177 23.63504734 -15 18 C-15.66 18 -16.32 18 -17 18 C-17 17.34 -17 16.68 -17 16 C-18.38358091 14.7062375 -18.38358091 14.7062375 -20.1875 13.5 C-20.77917969 13.0771875 -21.37085938 12.654375 -21.98046875 12.21875 C-30.84216591 6.8708786 -44.55723766 6.76059271 -53 13 Z " fill="#092746" transform="translate(464,127)"/>
<path d="M0 0 C0.67933594 0.47308594 1.35867187 0.94617188 2.05859375 1.43359375 C6.1925047 4.27073194 10.5032286 6.48635313 14.99609375 8.68359375 C20.28197063 11.27156588 25.41967823 13.93500617 30.41796875 17.0546875 C32.53508261 18.36065863 34.66443208 19.61134447 36.82421875 20.84375 C37.49187256 21.22990479 38.15952637 21.61605957 38.84741211 22.01391602 C40.15841552 22.77166935 41.4741005 23.52140301 42.79516602 24.26147461 C47.72935061 27.14469902 51.45081126 30.46802877 54.05859375 35.68359375 C54.18221614 37.95192084 54.23420023 40.22443162 54.24609375 42.49609375 C54.26027344 43.71941406 54.27445312 44.94273437 54.2890625 46.203125 C54.00937904 50.42681931 53.54703921 53.35533973 50.31640625 56.23828125 C49.61257812 56.67398438 48.90875 57.1096875 48.18359375 57.55859375 C47.37921875 58.06132812 46.57484375 58.5640625 45.74609375 59.08203125 C44.41578125 59.87480469 44.41578125 59.87480469 43.05859375 60.68359375 C41.63546875 61.53824219 41.63546875 61.53824219 40.18359375 62.41015625 C34.46468556 65.790865 28.66717801 69.00735288 22.8203125 72.16015625 C19.9660999 73.73461582 17.17046625 75.38879261 14.37109375 77.05859375 C9.51853028 79.90780533 4.58314646 82.53007975 -0.44140625 85.05859375 C-1.12420654 85.4045459 -1.80700684 85.75049805 -2.51049805 86.10693359 C-9.06120077 89.36231578 -14.63870616 90.49500487 -21.94140625 89.68359375 C-26.85223672 87.94591528 -30.55574104 84.5671509 -33.94140625 80.68359375 C-35.06524055 77.31209085 -35.09592495 74.70655472 -35.13427734 71.15185547 C-35.14245483 70.49287766 -35.15063232 69.83389984 -35.15905762 69.154953 C-35.18386303 66.97440483 -35.20041937 64.79392179 -35.21484375 62.61328125 C-35.22016743 61.86601902 -35.2254911 61.11875679 -35.2309761 60.34885025 C-35.25769282 56.38980384 -35.2770682 52.43078873 -35.29150391 48.47167969 C-35.3048146 45.20674444 -35.33261485 41.94243842 -35.37353516 38.67773438 C-35.42306632 34.72547644 -35.44765019 30.77378685 -35.45473099 26.82123184 C-35.46141126 25.32142048 -35.47654872 23.82162019 -35.5006218 22.32198715 C-35.63001263 13.7703611 -35.46219171 6.64730738 -29.94140625 -0.31640625 C-20.89741932 -9.59839283 -9.49521521 -6.43840548 0 0 Z " fill="#052442" transform="translate(93.94140625,159.31640625)"/>
<path d="M0 0 C5.50418303 2.94313727 8.56208206 7.38253157 10.64453125 13.17578125 C11.37283166 18.48179583 11.37434222 23.74339209 11.34375 29.0859375 C11.34966995 30.62333221 11.35692127 32.16072231 11.36543274 33.69810486 C11.37726038 36.90648583 11.37069217 40.11417072 11.35131836 43.32250977 C11.32840633 47.41724502 11.35526079 51.50990848 11.39638042 55.60443974 C11.42205062 58.77459088 11.41935439 61.94425194 11.40848732 65.11446953 C11.40700917 66.62343672 11.41459119 68.13244307 11.4317379 69.64131355 C11.56657216 83.79873817 11.56657216 83.79873817 6.32087708 89.68748474 C0.78138903 94.60556345 -3.3283018 95.48258317 -10.65234375 95.38671875 C-14.23224136 95.10736258 -16.32865309 94.10779125 -19.35546875 92.17578125 C-20.89377122 91.23277124 -22.43585798 90.29592262 -23.98046875 89.36328125 C-24.83769531 88.84121094 -25.69492188 88.31914062 -26.578125 87.78125 C-29.47053227 86.10926774 -32.41278409 84.63434858 -35.41796875 83.17578125 C-39.08184796 81.38579446 -42.45865477 79.52079328 -45.79296875 77.17578125 C-50.30047949 74.04012161 -55.11280998 71.92691105 -60.11328125 69.69140625 C-64.70044654 67.54704464 -69.29292231 65.22039845 -73.35546875 62.17578125 C-73.35546875 61.51578125 -73.35546875 60.85578125 -73.35546875 60.17578125 C-74.01546875 60.17578125 -74.67546875 60.17578125 -75.35546875 60.17578125 C-79.35322874 54.34571459 -79.10214685 48.03643533 -78.35546875 41.17578125 C-74.46980038 31.81485289 -63.79899766 26.67664302 -55.09375 22.5300293 C-48.89992309 19.54545767 -43.00901307 16.13302852 -37.10546875 12.61328125 C-35.68306885 11.77144287 -35.68306885 11.77144287 -34.23193359 10.91259766 C-30.34461357 8.60197191 -26.47550684 6.28587577 -22.70703125 3.78515625 C-15.29637438 -0.99967732 -8.62672523 -3.01863851 0 0 Z " fill="#042342" transform="translate(140.35546875,73.82421875)"/>
<path d="M0 0 C1.01900391 0.41378906 1.01900391 0.41378906 2.05859375 0.8359375 C19.24483187 7.63739694 36.42152218 10.53003563 54 3 C55.53527344 2.15888672 55.53527344 2.15888672 57.1015625 1.30078125 C60 0 60 0 62.2109375 0.09375 C64.46935594 1.23775235 65.3011588 2.34769043 66.625 4.5 C67.02976562 5.1290625 67.43453125 5.758125 67.8515625 6.40625 C71.62371062 14.92565937 71.34146691 23.89947906 71.31567383 33.02832031 C71.31251609 35.36310666 71.33602647 37.6966197 71.36132812 40.03125 C71.41543336 52.50707171 70.1581395 63.02196784 62 73 C53.78634463 81.21365537 43.54743474 83.21584107 32.4375 83.25 C20.81188657 83.22586087 11.77804764 82.23190098 2.546875 74.62109375 C1 73 1 73 1 71 C0.34 71 -0.32 71 -1 71 C-1.81752303 69.41925436 -2.62881997 67.83528777 -3.4375 66.25 C-3.88996094 65.36828125 -4.34242188 64.4865625 -4.80859375 63.578125 C-7.03191686 58.76699959 -7.23926489 54.18743516 -7.421875 48.9375 C-7.46371918 47.75679932 -7.46371918 47.75679932 -7.50640869 46.55224609 C-7.56273281 44.88468973 -7.6163588 43.21704036 -7.66748047 41.54931641 C-7.74883557 39.03597331 -7.85273588 36.52419904 -7.95703125 34.01171875 C-8.37426843 22.06290905 -7.83532146 11.2529822 -1 1 C-0.67 0.67 -0.34 0.34 0 0 Z " fill="#01B465" transform="translate(165,166)"/>
<path d="M0 0 C0.78890625 0.10183594 1.5778125 0.20367187 2.390625 0.30859375 C14.08220838 2.34831243 23.11113017 8.47673619 30 18 C34.56402954 25.04852524 35.11035506 29.10355056 36 38 C27.42 38 18.84 38 10 38 C8.68 35.03 7.36 32.06 6 29 C3.33945509 25.65286285 1.04030755 24.29906346 -3 23 C-5.69350073 22.78552269 -8.24815841 22.67501466 -10.9375 22.6875 C-11.62779297 22.67138672 -12.31808594 22.65527344 -13.02929688 22.63867188 C-19.52195055 22.6325177 -24.09270939 24.67839313 -28.6875 29.1875 C-36.14580314 36.99155229 -36.24950796 47.31593624 -36.15234375 57.59375 C-35.81857699 65.05643242 -33.75651996 72.91232676 -28.58203125 78.54296875 C-21.31663258 84.91186579 -13.11051259 84.81160745 -3.94921875 84.23388672 C0.58324625 83.69003633 2.68971841 82.11555914 6 79 C7.32 76.36 8.64 73.72 10 71 C18.58 71 27.16 71 36 71 C34.87080266 81.16277605 32.87385029 88.2248265 25 95 C24.44828125 95.56460938 23.8965625 96.12921875 23.328125 96.7109375 C13.68407844 106.1557269 0.63293202 107.24532082 -12.29467773 107.25097656 C-26.38837276 107.05070013 -37.63553714 103.89070254 -47.53125 93.8046875 C-49 92 -49 92 -49 90 C-49.66 90 -50.32 90 -51 90 C-60.79817053 77.59831558 -62.9877772 61.29107429 -62 46 C-60.03212439 30.89229351 -53.87548919 20.0586401 -43.3125 9.25 C-30.58872101 -0.38714797 -15.36665685 -2.09360536 0 0 Z " fill="#092746" transform="translate(331,114)"/>
<path d="M0 0 C0.66 0 1.32 0 2 0 C4.28885836 7.96996893 4.33890365 15.80668483 4.31567383 24.02832031 C4.31251609 26.36310666 4.33602647 28.6966197 4.36132812 31.03125 C4.4098929 42.42260609 3.30837193 52.21114701 -3 62 C-3.495 60.515 -3.495 60.515 -4 59 C-3.33333333 57.66666667 -2.66666667 56.33333333 -2 55 C-1.61250787 52.67504723 -1.27017161 50.34148732 -1 48 C-0.34 48 0.32 48 1 48 C1.02484561 42.44987305 1.04292868 36.89977898 1.05493164 31.34960938 C1.05993919 29.46418697 1.06674715 27.5787684 1.07543945 25.69335938 C1.08766253 22.97264656 1.09326424 20.2519854 1.09765625 17.53125 C1.10281754 16.69758911 1.10797882 15.86392822 1.11329651 15.00500488 C1.11377714 9.91292184 0.73129553 5.04062523 0 0 Z " fill="#62C7A6" transform="translate(232,175)"/>
<path d="M0 0 C5 2 5 2 10 4 C9.67 4.66 9.34 5.32 9 6 C8.05125 5.95875 7.1025 5.9175 6.125 5.875 C2.89755144 5.65026182 2.89755144 5.65026182 1 8 C0.01 8 -0.98 8 -2 8 C-6.10446957 17.61038799 -5.55909073 27.87812472 -5.6875 38.125 C-5.72072473 39.95835699 -5.75521903 41.79169143 -5.79101562 43.625 C-5.87532839 48.08320792 -5.94241387 52.54137004 -6 57 C-6.33 57 -6.66 57 -7 57 C-7.21953859 51.95099692 -7.41585374 46.90177625 -7.59204102 41.85107422 C-7.65490056 40.13827232 -7.72375746 38.42567834 -7.79907227 36.71337891 C-8.35830207 23.86985949 -8.39828098 12.09742147 -1 1 C-0.67 0.67 -0.34 0.34 0 0 Z " fill="#26AD80" transform="translate(165,166)"/>
<path d="M0 0 C0.66 0.99 1.32 1.98 2 3 C1.5390625 5.27734375 1.5390625 5.27734375 0.625 7.9375 C-2.57046002 18.70264974 -1.78003926 30.75705874 3 41 C2.01 40.67 1.02 40.34 0 40 C0 39.34 0 38.68 0 38 C-0.66 38 -1.32 38 -2 38 C-3.59362617 31.52712332 -4.46868827 25.33950962 -4.8125 18.6875 C-4.87630859 17.80771484 -4.94011719 16.92792969 -5.00585938 16.02148438 C-5.35124081 9.6149019 -5.35124081 9.6149019 -3.51171875 6.39453125 C-2.76341797 5.70423828 -2.76341797 5.70423828 -2 5 C-2.66 4.67 -3.32 4.34 -4 4 C-2.68 2.68 -1.36 1.36 0 0 Z " fill="#12A672" transform="translate(614,147)"/>
<path d="M0 0 C3.86749337 1.24312287 5.13564319 3.54232282 6.97265625 7.05078125 C7.98205272 9.0957586 7.98205272 9.0957586 9.59375 11.09375 C11.68214313 15.40976246 11.48853082 19.45242097 11.4375 24.1875 C11.43210205 25.12698486 11.4267041 26.06646973 11.42114258 27.03442383 C11.27990303 33.45831103 10.83916756 39.59434935 7 45 C6.01 45.66 5.02 46.32 4 47 C4.474375 45.845 4.94875 44.69 5.4375 43.5 C8.98248655 32.78063592 9.62488181 18.28544413 5.04296875 7.8125 C3.91333565 5.71548714 3.91333565 5.71548714 2 3 C1.34 2.01 0.68 1.02 0 0 Z " fill="#38B18A" transform="translate(658,142)"/>
<path d="M0 0 C1.32 0.33 2.64 0.66 4 1 C-6.52747886 10.211544 -20.50367932 11.44438048 -33.9375 10.875 C-41.04399456 10.18052329 -47.41249032 7.64085077 -54 5 C-49.47907032 3.54393481 -46.48351204 4.72967159 -42 6 C-42 6.66 -42 7.32 -42 8 C-41.33613281 7.91621094 -40.67226563 7.83242187 -39.98828125 7.74609375 C-35.35125261 7.21131234 -31.57081023 6.94519764 -27 8 C-17.70218909 8.63756418 -9.32748642 6.08397802 -1 2 C-0.67 1.34 -0.34 0.68 0 0 Z " fill="#2CAD86" transform="translate(667,211)"/>
<path d="M0 0 C-0.75 1.9375 -0.75 1.9375 -2 4 C-3.32594105 4.36162029 -4.65938457 4.69728039 -6 5 C-6.33 5.99 -6.66 6.98 -7 8 C-9.68434019 11.06781736 -12.51249898 12.94326863 -16 15 C-17.75149165 16.58245275 -17.75149165 16.58245275 -19 18 C-19.33 17.34 -19.66 16.68 -20 16 C-15.37728697 8.56553369 -9.77749123 0 0 0 Z " fill="#384D6A" transform="translate(181,73)"/>
<path d="M0 0 C0.33 0 0.66 0 1 0 C1.09274137 9.04044369 1.16378568 18.08072325 1.20724869 27.12153912 C1.22811042 31.31972258 1.25640168 35.51758022 1.30175781 39.71557617 C1.34526685 43.76804106 1.36914775 47.82019285 1.37950897 51.87287331 C1.38689134 53.41784404 1.40130763 54.96279792 1.42292023 56.50763512 C1.45202308 58.67432861 1.45595337 60.83973383 1.45410156 63.0065918 C1.46298401 64.23903122 1.47186646 65.47147064 1.48101807 66.74125671 C0.91526207 70.57407233 -0.35625067 72.23383517 -3 75 C-3 73.02 -3 71.04 -3 69 C-2.01 69 -1.02 69 0 69 C0 46.23 0 23.46 0 0 Z " fill="#4B5E7E" transform="translate(150,87)"/>
<path d="M0 0 C5.79933423 5.15496376 9.07851194 11.47417178 11 19 C11.07522969 21.33212027 11.09325876 23.6685311 11 26 C8.79459886 23.79459886 7.7599273 21.78605258 6.375 19 C5.92898438 18.113125 5.48296875 17.22625 5.0234375 16.3125 C4 14 4 14 4 12 C3.505 11.5875 3.01 11.175 2.5 10.75 C0.33895687 8.22878302 0.8653378 6.23189289 1 3 C0.67 2.01 0.34 1.02 0 0 Z " fill="#21AD77" transform="translate(679,131)"/>
<path d="M0 0 C-0.33 0.66 -0.66 1.32 -1 2 C-3.31 1.34 -5.62 0.68 -8 0 C-8 -0.66 -8 -1.32 -8 -2 C-12.29 -2 -16.58 -2 -21 -2 C-21 -2.66 -21 -3.32 -21 -4 C-22.10408203 -3.87431641 -22.10408203 -3.87431641 -23.23046875 -3.74609375 C-24.69419922 -3.59333984 -24.69419922 -3.59333984 -26.1875 -3.4375 C-27.15042969 -3.33308594 -28.11335937 -3.22867188 -29.10546875 -3.12109375 C-31.94233377 -3.00241249 -34.25423671 -3.32234361 -37 -4 C-37 -4.33 -37 -4.66 -37 -5 C-24.53704331 -7.55650394 -11.24792143 -5.98726567 0 0 Z " fill="#27AC80" transform="translate(665,119)"/>
<path d="M0 0 C0.33 0 0.66 0 1 0 C1.45521934 24.40481452 1.45521934 24.40481452 -3 35 C-3.33 35 -3.66 35 -4 35 C-4.20084255 30.28020018 -3.64795528 26.49568159 -2.5078125 21.87890625 C-1.68392507 17.20809829 -1.53864069 12.49763663 -1.34204102 7.76416016 C-1.09519746 2.19039491 -1.09519746 2.19039491 0 0 Z " fill="#1EA175" transform="translate(690,158)"/>
<path d="M0 0 C3.14380759 1.88628455 4.2341525 4.90190669 5.875 8.125 C5.28332031 7.9084375 4.69164062 7.691875 4.08203125 7.46875 C-1.86160902 5.34739206 -1.86160902 5.34739206 -8.125 5.125 C-8.125 5.785 -8.125 6.445 -8.125 7.125 C-14.56 7.62 -14.56 7.62 -21.125 8.125 C-21.125 7.795 -21.125 7.465 -21.125 7.125 C-20.25617188 6.87105469 -19.38734375 6.61710938 -18.4921875 6.35546875 C-17.33976563 6.01128906 -16.18734375 5.66710937 -15 5.3125 C-13.86304688 4.97605469 -12.72609375 4.63960937 -11.5546875 4.29296875 C-7.7123802 2.98448369 -4.02962525 0.23703678 0 0 Z " fill="#35B486" transform="translate(227.125,165.875)"/>
<path d="M0 0 C1.32 0.66 2.64 1.32 4 2 C4 2.33 4 2.66 4 3 C9.61 3.66 15.22 4.32 21 5 C21 5.33 21 5.66 21 6 C17.7085089 6.08857863 14.41733195 6.1409104 11.125 6.1875 C9.74828125 6.22520508 9.74828125 6.22520508 8.34375 6.26367188 C1.89965729 6.33174328 -4.05452482 5.65239618 -10 3 C-10.33 2.34 -10.66 1.68 -11 1 C-8.36 1.33 -5.72 1.66 -3 2 C-3 2.66 -3 3.32 -3 4 C-2.34 4 -1.68 4 -1 4 C-0.67 2.68 -0.34 1.36 0 0 Z " fill="#5E7691" transform="translate(186,161)"/>
<path d="M0 0 C3.5624308 -0.05827558 7.12473819 -0.09368885 10.6875 -0.125 C12.19860352 -0.15013672 12.19860352 -0.15013672 13.74023438 -0.17578125 C14.71669922 -0.18222656 15.69316406 -0.18867188 16.69921875 -0.1953125 C17.59471436 -0.20578613 18.49020996 -0.21625977 19.4128418 -0.22705078 C22.32385603 0.02842183 24.4151537 0.63842323 27 2 C27.33 2.99 27.66 3.98 28 5 C28.66 5 29.32 5 30 5 C29.67 5.66 29.34 6.32 29 7 C28.45214844 6.6390625 27.90429688 6.278125 27.33984375 5.90625 C19.16901938 1.12332842 10.46382082 0.37712915 1.26171875 2.6875 C-1.11971285 3.52508651 -1.11971285 3.52508651 -4 5 C-4 4.01 -4 3.02 -4 2 C-2.68 2 -1.36 2 0 2 C0 1.34 0 0.68 0 0 Z " fill="#5FC0A3" transform="translate(628,135)"/>
<path d="M0 0 C0.99 0.33 1.98 0.66 3 1 C0.99023415 5.41373015 -1.2805111 8.74935225 -4.5625 12.3125 C-5.34753906 13.17488281 -6.13257813 14.03726563 -6.94140625 14.92578125 C-9 17 -9 17 -11 18 C-11 16.68 -11 15.36 -11 14 C-10.34 14 -9.68 14 -9 14 C-9 13.34 -9 12.68 -9 12 C-8.34 11.67 -7.68 11.34 -7 11 C-7 10.34 -7 9.68 -7 9 C-5.68 9 -4.36 9 -3 9 C-3 7.35 -3 5.7 -3 4 C-2.01 3.67 -1.02 3.34 0 3 C0 2.01 0 1.02 0 0 Z " fill="#42B68F" transform="translate(683,193)"/>
<path d="M0 0 C0 0.66 0 1.32 0 2 C-7.83687063 7.33574171 -15.89555825 6.37245444 -25 6 C-25 5.34 -25 4.68 -25 4 C-25.66 3.67 -26.32 3.34 -27 3 C-25.78183594 3.03480469 -24.56367187 3.06960937 -23.30859375 3.10546875 C-21.68490972 3.13362512 -20.06121065 3.16092329 -18.4375 3.1875 C-17.63763672 3.21263672 -16.83777344 3.23777344 -16.01367188 3.26367188 C-10.14762115 3.33550107 -5.32704637 0 0 0 Z " fill="#53BEA0" transform="translate(656,195)"/>
<path d="M0 0 C6.60034305 0.88850772 6.60034305 0.88850772 8.8203125 1.5078125 C12.84207038 2.41595138 16.99384883 2.40416954 21.1015625 2.62109375 C24 3 24 3 26 5 C18.26291674 5.12152487 10.692641 4.84800767 3 4 C3 3.34 3 2.68 3 2 C2.01 2 1.02 2 0 2 C0 1.34 0 0.68 0 0 Z " fill="#3FB78D" transform="translate(175,171)"/>
<path d="M0 0 C0.66 0.33 1.32 0.66 2 1 C1.01 1.33 0.02 1.66 -1 2 C-1.309375 2.639375 -1.61875 3.27875 -1.9375 3.9375 C-3 6 -3 6 -5 6.9375 C-7.76477686 8.40628771 -7.9058798 10.12793448 -9 13 C-11 15.3125 -11 15.3125 -13 17 C-13.66 17 -14.32 17 -15 17 C-13.65289963 13.08995482 -11.946333 10.44505891 -9.1875 7.375 C-8.52105469 6.61960937 -7.85460937 5.86421875 -7.16796875 5.0859375 C-4.90956674 2.91298854 -2.81036609 1.38427949 0 0 Z " fill="#6CCBB1" transform="translate(610,121)"/>
<path d="M0 0 C1.26041675 2.5208335 0.66225891 3.35096436 0 6 C0.33 6.66 0.66 7.32 1 8 C-1.60691842 10.60691842 -3.37607794 10.70416963 -7 11 C-7.99 10.34 -8.98 9.68 -10 9 C-8.35 8.67 -6.7 8.34 -5 8 C-4.9175 7.4225 -4.835 6.845 -4.75 6.25 C-3.79468987 3.3840696 -2.21530827 2.0009236 0 0 Z " fill="#19AE73" transform="translate(661,189)"/>
<path d="M0 0 C2.25473176 3.38209765 2.52740931 5.50705432 3.0625 9.5 C3.51667276 12.83310259 3.93568845 15.80706535 5 19 C4.34 19.99 3.68 20.98 3 22 C1.05789567 14.52058632 -0.39363688 7.74152536 0 0 Z " fill="#33AC80" transform="translate(588,169)"/>
<path d="M0 0 C-3.56979355 2.11273496 -7.0267098 4.07134246 -10.875 5.625 C-14.08664391 6.6411441 -14.08664391 6.6411441 -15 9 C-15.99 9 -16.98 9 -18 9 C-18 8.34 -18 7.68 -18 7 C-13.44757646 2.59442883 -6.44358052 -2.26475052 0 0 Z " fill="#24AE7D" transform="translate(627,116)"/>
<path d="M0 0 C2 3.75 2 3.75 2 6 C2.31478446 7.33783393 2.64587656 8.67203709 3 10 C0.525 9.01 0.525 9.01 -2 8 C-2 7.34 -2 6.68 -2 6 C-2.66 6 -3.32 6 -4 6 C-4.66 4.35 -5.32 2.7 -6 1 C-4.7934375 1.0309375 -4.7934375 1.0309375 -3.5625 1.0625 C-1.06645115 1.29633621 -1.06645115 1.29633621 0 0 Z " fill="#263F5E" transform="translate(69,128)"/>
<path d="M0 0 C0.33 0 0.66 0 1 0 C1.66268329 7.12384541 -0.74611936 13.30879185 -3 20 C-3.33 20 -3.66 20 -4 20 C-3.40546697 6.3667426 -3.40546697 6.3667426 0 0 Z " fill="#2CAD82" transform="translate(592,143)"/>
<path d="M0 0 C1.32 0.66 2.64 1.32 4 2 C-3.08235294 8.09411765 -3.08235294 8.09411765 -7 10 C-7.99 9.67 -8.98 9.34 -10 9 C-10 8.34 -10 7.68 -10 7 C-6.27034861 4.96564469 -4.33094958 4 0 4 C0 2.68 0 1.36 0 0 Z " fill="#39B487" transform="translate(224,236)"/>
<path d="M0 0 C0.66 0 1.32 0 2 0 C1.62964591 6.78982507 -0.40476401 11.26884891 -4 17 C-4.33 16.01 -4.66 15.02 -5 14 C-4.33333333 12.66666667 -3.66666667 11.33333333 -3 10 C-2.61250787 7.67504723 -2.27017161 5.34148732 -2 3 C-1.34 3 -0.68 3 0 3 C0 2.01 0 1.02 0 0 Z " fill="#5DC1A0" transform="translate(233,220)"/>
<path d="M0 0 C2.97 1.65 5.94 3.3 9 5 C9 5.66 9 6.32 9 7 C10.32 7.66 11.64 8.32 13 9 C10 10 10 10 6.9375 8.875 C3.68946681 6.80178732 2.98531402 5.64566186 2 2 C1.34 2 0.68 2 0 2 C0 1.34 0 0.68 0 0 Z " fill="#51BE98" transform="translate(666,120)"/>
<path d="M0 0 C3.68006822 3.38168431 5.9785845 6.42521756 8 11 C6.1875 11.6875 6.1875 11.6875 4 12 C2.25 10.9375 2.25 10.9375 1 9 C0.875 6 0.875 6 1 3 C0.67 2.01 0.34 1.02 0 0 Z " fill="#4BC198" transform="translate(679,131)"/>
<path d="M0 0 C0.33 0 0.66 0 1 0 C1.36263859 5.8022175 0.25684543 9.63999211 -2 15 C-2.33 15 -2.66 15 -3 15 C-3.22552339 9.36191513 -2.52663487 5.05326974 0 0 Z " fill="#4BB590" transform="translate(689,178)"/>
<path d="M0 0 C7.75 0.75 7.75 0.75 10 3 C6.31109101 4.22963633 2.86300794 4.55670401 -1 5 C-0.67 3.35 -0.34 1.7 0 0 Z " fill="#18B176" transform="translate(165,168)"/>
<path d="M0 0 C0.33 0 0.66 0 1 0 C1.12117187 0.66386719 1.24234375 1.32773438 1.3671875 2.01171875 C2.22547708 6.53424459 3.03971311 10.79938524 5 15 C4.01 14.67 3.02 14.34 2 14 C2 13.34 2 12.68 2 12 C1.34 12 0.68 12 0 12 C-0.19573608 10.56359829 -0.38127816 9.12580496 -0.5625 7.6875 C-0.66691406 6.88699219 -0.77132812 6.08648437 -0.87890625 5.26171875 C-1 3 -1 3 0 0 Z " fill="#4CBE98" transform="translate(612,173)"/>
<path d="M0 0 C0 0.99 0 1.98 0 3 C-0.99 3 -1.98 3 -3 3 C-3 3.66 -3 4.32 -3 5 C-9.435 5.495 -9.435 5.495 -16 6 C-16 5.67 -16 5.34 -16 5 C-15.09636719 4.72285156 -14.19273437 4.44570312 -13.26171875 4.16015625 C-12.08222656 3.79792969 -10.90273437 3.43570313 -9.6875 3.0625 C-7.92986328 2.52302734 -7.92986328 2.52302734 -6.13671875 1.97265625 C-4.08446023 1.33627721 -2.03839863 0.67946621 0 0 Z " fill="#6EC6AB" transform="translate(222,168)"/>
<path d="M0 0 C4.75 0.875 4.75 0.875 7 2 C7 2.66 7 3.32 7 4 C8.32 4.66 9.64 5.32 11 6 C11 6.66 11 7.32 11 8 C6.40378078 6.5129879 3.53027653 4.20187872 0 1 C0 0.67 0 0.34 0 0 Z " fill="#52BE9B" transform="translate(602,207)"/>
<path d="M0 0 C0.66 0 1.32 0 2 0 C1.34 7.59 0.68 15.18 0 23 C-0.33 23 -0.66 23 -1 23 C-1.02887512 19.35418313 -1.04675585 15.70839537 -1.0625 12.0625 C-1.07087891 11.02158203 -1.07925781 9.98066406 -1.08789062 8.90820312 C-1.09272461 7.42416992 -1.09272461 7.42416992 -1.09765625 5.91015625 C-1.10289307 4.99371338 -1.10812988 4.07727051 -1.11352539 3.13305664 C-1 1 -1 1 0 0 Z " fill="#50627E" transform="translate(294,152)"/>
<path d="M0 0 C0.66 0 1.32 0 2 0 C2.33 1.32 2.66 2.64 3 4 C0.36 5.65 -2.28 7.3 -5 9 C-5.33 8.34 -5.66 7.68 -6 7 C-5.38125 6.5875 -4.7625 6.175 -4.125 5.75 C-1.93231719 3.94426121 -1.07211583 2.5909466 0 0 Z " fill="#203956" transform="translate(140,212)"/>
<path d="M0 0 C2 3 2 3 1.5390625 5.69921875 C1.23742187 6.68535156 0.93578125 7.67148438 0.625 8.6875 C0.32851563 9.68136719 0.03203125 10.67523438 -0.2734375 11.69921875 C-0.51320313 12.45847656 -0.75296875 13.21773437 -1 14 C-1.33 14 -1.66 14 -2 14 C-2 11.03 -2 8.06 -2 5 C-2.66 4.67 -3.32 4.34 -4 4 C-2.68 2.68 -1.36 1.36 0 0 Z " fill="#42BF91" transform="translate(614,147)"/>
<path d="M0 0 C1.79093191 -0.08086147 3.58289628 -0.13912702 5.375 -0.1875 C6.87160156 -0.23970703 6.87160156 -0.23970703 8.3984375 -0.29296875 C9.25695312 -0.19628906 10.11546875 -0.09960938 11 0 C11.66 0.99 12.32 1.98 13 3 C7.52667068 4.46845421 4.88077452 3.44038726 0 1 C0 0.67 0 0.34 0 0 Z " fill="#30B284" transform="translate(174,244)"/>
<path d="M0 0 C0.99 0.33 1.98 0.66 3 1 C1.3619751 4.51005335 -0.03134491 7.45543849 -3 10 C-3 8.02 -3 6.04 -3 4 C-2.01 3.67 -1.02 3.34 0 3 C0 2.01 0 1.02 0 0 Z " fill="#52BF9C" transform="translate(683,193)"/>
<path d="M0 0 C4.29238623 1.65091778 6.8793915 4.73754566 10 8 C9.67 8.66 9.34 9.32 9 10 C1.33257403 5.18223235 1.33257403 5.18223235 0 0 Z " fill="#4B6283" transform="translate(560,124)"/>
<path d="M0 0 C0.99 0 1.98 0 3 0 C3 3 3 3 1.46875 4.60546875 C0.8190625 5.12753906 0.169375 5.64960937 -0.5 6.1875 C-1.1496875 6.71730469 -1.799375 7.24710937 -2.46875 7.79296875 C-2.9740625 8.19128906 -3.479375 8.58960937 -4 9 C-4.33 8.34 -4.66 7.68 -5 7 C-4.24172908 5.82512964 -3.46792245 4.66027408 -2.6875 3.5 C-2.25824219 2.8503125 -1.82898438 2.200625 -1.38671875 1.53125 C-0.70029297 0.77328125 -0.70029297 0.77328125 0 0 Z " fill="#203655" transform="translate(166,82)"/>
<path d="M0 0 C1.98 0.99 1.98 0.99 4 2 C4 2.66 4 3.32 4 4 C4.66 4 5.32 4 6 4 C6.33 5.98 6.66 7.96 7 10 C6.34 9.67 5.68 9.34 5 9 C5 8.34 5 7.68 5 7 C4.34 7 3.68 7 3 7 C0 2.61538462 0 2.61538462 0 0 Z " fill="#43B58F" transform="translate(161,230)"/>
<path d="M0 0 C1.98 0.66 3.96 1.32 6 2 C3.06171403 4.50298434 0.82097239 5.46930939 -3 6 C-2.34 5.67 -1.68 5.34 -1 5 C-0.34444881 2.47266765 -0.34444881 2.47266765 0 0 Z " fill="#50637E" transform="translate(553,210)"/>
<path d="M0 0 C0 3.99904969 -1.72586967 5.80200422 -4 9 C-5.0625 7.1875 -5.0625 7.1875 -6 5 C-5.67 4.01 -5.34 3.02 -5 2 C-2.4375 0.8125 -2.4375 0.8125 0 0 Z " fill="#465979" transform="translate(472,195)"/>
<path d="M0 0 C3.45925163 1.2491742 6.14693203 2.67527795 9 5 C6.21176345 6.0326802 5.1322726 6.04509293 2.25 5.0625 C1.5075 4.711875 0.765 4.36125 0 4 C0 2.68 0 1.36 0 0 Z " fill="#31B084" transform="translate(620,193)"/>
<path d="M0 0 C3.99500618 1.3697164 6.80009492 3.25722422 10 6 C8.35 6.33 6.7 6.66 5 7 C5 6.34 5 5.68 5 5 C4.360625 4.731875 3.72125 4.46375 3.0625 4.1875 C1 3 1 3 0 0 Z " fill="#485C7B" transform="translate(122,176)"/>
<path d="M0 0 C1.32 0.33 2.64 0.66 4 1 C3.04270084 2.12588014 2.08412105 3.2506715 1.125 4.375 C0.59132813 5.00148437 0.05765625 5.62796875 -0.4921875 6.2734375 C-1.61432007 7.55836651 -2.79371975 8.79371975 -4 10 C-3.47731534 7.23723823 -2.89130413 4.6739124 -2 2 C-1.34 2 -0.68 2 0 2 C0 1.34 0 0.68 0 0 Z " fill="#58C4A3" transform="translate(620,139)"/>
<path d="M0 0 C0.66 0.33 1.32 0.66 2 1 C2 1.66 2 2.32 2 3 C2.66 3 3.32 3 4 3 C4.33 4.65 4.66 6.3 5 8 C2.69 7.34 0.38 6.68 -2 6 C-1.67 5.34 -1.34 4.68 -1 4 C-0.34 4 0.32 4 1 4 C0.67 2.68 0.34 1.36 0 0 Z " fill="#425673" transform="translate(468,133)"/>
<path d="M0 0 C0.66 0 1.32 0 2 0 C2 1.32 2 2.64 2 4 C2.66 4 3.32 4 4 4 C4.33 3.34 4.66 2.68 5 2 C5.33 3.65 5.66 5.3 6 7 C3 7 3 7 1 6 C0.375 2.9375 0.375 2.9375 0 0 Z " fill="#20B177" transform="translate(159,224)"/>
<path d="M0 0 C4.05606165 0.46800711 7.46588679 0.87953208 11 3 C8.36 3.33 5.72 3.66 3 4 C3 3.34 3 2.68 3 2 C2.01 2 1.02 2 0 2 C0 1.34 0 0.68 0 0 Z " fill="#50BD9D" transform="translate(175,171)"/>
<path d="M0 0 C1 3 1 3 0.22265625 4.82421875 C-0.8515625 6.54947917 -1.92578125 8.27473958 -3 10 C-3.33 10 -3.66 10 -4 10 C-4 8.02 -4 6.04 -4 4 C-2.68 3.34 -1.36 2.68 0 2 C0 1.34 0 0.68 0 0 Z " fill="#516480" transform="translate(233,142)"/>
<path d="M0 0 C-0.54087318 3.78611227 -2.11722332 5.55400767 -5 8 C-5.66 8 -6.32 8 -7 8 C-4.18918919 0 -4.18918919 0 0 0 Z " fill="#3EB891" transform="translate(602,130)"/>
<path d="M0 0 C0.33 0.66 0.66 1.32 1 2 C-0.77324262 6.19978515 -3.05004453 9.54143152 -6 13 C-5.51675181 7.84535266 -2.81389239 4.18449681 0 0 Z " fill="#3C5C79" transform="translate(280,132)"/>
<path d="M0 0 C3.48330216 0.64505596 6.09432866 1.98217268 9 4 C9 4.66 9 5.32 9 6 C4.75177626 5.52797514 2.80010291 3.03344482 0 0 Z " fill="#253B59" transform="translate(63,242)"/>
<path d="M0 0 C1.32 0.33 2.64 0.66 4 1 C4 2.65 4 4.3 4 6 C4.66 6 5.32 6 6 6 C6.33 6.99 6.66 7.98 7 9 C6.34 9 5.68 9 5 9 C5 8.34 5 7.68 5 7 C4.34 7 3.68 7 3 7 C0 2.61538462 0 2.61538462 0 0 Z " fill="#5AC0A2" transform="translate(595,197)"/>
<path d="M0 0 C2 1 4 2 6 3 C5.34 5.31 4.68 7.62 4 10 C3.67 10 3.34 10 3 10 C1.87119943 6.68885166 0.78697325 3.41021743 0 0 Z " fill="#5A6F8E" transform="translate(550,145)"/>
<path d="M0 0 C2.31 0.33 4.62 0.66 7 1 C3.81237635 3.12508244 1.73487777 3.5020163 -2 4 C-1.34 2.68 -0.68 1.36 0 0 Z " fill="#526886" transform="translate(209,162)"/>
<path d="M0 0 C0.66 0.33 1.32 0.66 2 1 C-0.31 3.64 -2.62 6.28 -5 9 C-5.66 8.01 -6.32 7.02 -7 6 C-4.69 4.02 -2.38 2.04 0 0 Z " fill="#687F95" transform="translate(303,140)"/>
<path d="M0 0 C3.63 0.33 7.26 0.66 11 1 C11 1.33 11 1.66 11 2 C10.030625 2.12375 9.06125 2.2475 8.0625 2.375 C7.051875 2.58125 6.04125 2.7875 5 3 C4.67 3.66 4.34 4.32 4 5 C3.34 5 2.68 5 2 5 C2 3.68 2 2.36 2 1 C1.34 0.67 0.68 0.34 0 0 Z " fill="#1C355A" transform="translate(426,113)"/>
<path d="M0 0 C-0.33 0.99 -0.66 1.98 -1 3 C-3.875 3.625 -3.875 3.625 -7 4 C-7.66 3.34 -8.32 2.68 -9 2 C-5.86501708 0.14223235 -3.62528568 -0.20140476 0 0 Z " fill="#4A5A7C" transform="translate(131,73)"/>
<path d="M0 0 C0.75 1.75 0.75 1.75 1 4 C-0.8125 6.25 -0.8125 6.25 -3 8 C-3.66 8 -4.32 8 -5 8 C-4 6 -3 4 -2 2 C-1.34 2 -0.68 2 0 2 C0 1.34 0 0.68 0 0 Z " fill="#627290" transform="translate(387,130)"/>
<path d="M0 0 C0.99 0.33 1.98 0.66 3 1 C3 2.32 3 3.64 3 5 C1.35 5 -0.3 5 -2 5 C-2 3 -2 3 0 1 C0 0.67 0 0.34 0 0 Z " fill="#021C3A" transform="translate(363,146)"/>
<path d="M0 0 C1.32 0.33 2.64 0.66 4 1 C4 1.66 4 2.32 4 3 C2.35 3.66 0.7 4.32 -1 5 C-1.66 3.68 -2.32 2.36 -3 1 C-2.01 1 -1.02 1 0 1 C0 0.67 0 0.34 0 0 Z " fill="#011E3C" transform="translate(452,121)"/>
<path d="M0 0 C0.33 0.66 0.66 1.32 1 2 C0.34 2.66 -0.32 3.32 -1 4 C-1.66 3.67 -2.32 3.34 -3 3 C-3.33 3.99 -3.66 4.98 -4 6 C-4.99 5.34 -5.98 4.68 -7 4 C-4.69 2.68 -2.38 1.36 0 0 Z " fill="#526585" transform="translate(116,79)"/>
</svg>
